<svg width="743" height="713" viewBox="0 0 743 713" fill="none" xmlns="http://www.w3.org/2000/svg">
<g clip-path="url(#clip0)">
<path d="M455.5 523C577.831 523 677 423.831 677 301.5C677 179.169 577.831 80 455.5 80C333.169 80 234 179.169 234 301.5C234 423.831 333.169 523 455.5 523Z" fill="#17A2B8"/>
<path d="M740.479 712.573H1.93799C0.866988 712.573 0 712.105 0 711.528C0 710.951 0.867988 710.483 1.93799 710.483H740.479C741.549 710.483 742.417 710.951 742.417 711.528C742.417 712.105 741.55 712.573 740.479 712.573Z" fill="#E6E6E6"/>
<path d="M709.201 671.808C706.046 672.917 702.658 673.195 699.364 672.615C696.07 672.034 692.981 670.616 690.395 668.495C683.808 662.967 681.743 653.859 680.063 645.425L675.093 620.48L685.498 627.645C692.981 632.797 700.632 638.115 705.814 645.578C710.996 653.041 713.257 663.229 709.094 671.304" fill="#17A2B8"/>
<path d="M707.594 703.745C708.904 694.203 710.251 684.539 709.332 674.896C708.516 666.331 705.903 657.966 700.583 651.107C697.759 647.473 694.324 644.36 690.43 641.907C689.415 641.266 688.48 642.875 689.491 643.513C696.228 647.771 701.439 654.059 704.372 661.469C707.612 669.71 708.132 678.693 707.572 687.446C707.234 692.74 706.519 697.999 705.798 703.251C705.741 703.489 705.777 703.739 705.898 703.951C706.018 704.164 706.215 704.322 706.448 704.395C706.686 704.459 706.939 704.427 707.153 704.305C707.368 704.183 707.525 703.982 707.592 703.745H707.594Z" fill="#17A2B8"/>
<path d="M698.167 688.435C696.814 690.492 694.954 692.165 692.766 693.294C690.578 694.424 688.136 694.97 685.676 694.882C679.353 694.582 674.081 690.169 669.336 685.982L655.301 673.587L664.59 673.143C671.27 672.823 678.123 672.525 684.49 674.585C690.857 676.645 696.721 681.603 697.884 688.185" fill="#17A2B8"/>
<path d="M711.295 709.23C704.995 698.074 697.677 685.675 684.61 681.712C680.977 680.614 677.167 680.22 673.386 680.553C672.194 680.653 672.492 682.493 673.686 682.39C680.024 681.864 686.35 683.537 691.598 687.129C696.649 690.567 700.581 695.346 703.909 700.415C705.948 703.515 707.774 706.756 709.6 709.988C710.18 711.02 711.886 710.275 711.295 709.23Z" fill="#17A2B8"/>
<path d="M407.652 240.677L394.677 253.652L503.348 362.323L516.323 349.348L407.652 240.677Z" fill="white"/>
<path d="M516.323 253.652L503.348 240.677L394.676 349.348L407.652 362.323L516.323 253.652Z" fill="white"/>
<path d="M90.2594 456.135C91.6452 455.644 92.9066 454.856 93.9548 453.825C95.003 452.795 95.8125 451.546 96.3261 450.169C96.8398 448.792 97.0452 447.318 96.9279 445.853C96.8106 444.388 96.3734 442.966 95.6471 441.688L119.212 414.824L100.817 412.286L81.2592 438.185C79.1928 439.548 77.698 441.621 77.058 444.012C76.418 446.403 76.6772 448.945 77.7866 451.158C78.896 453.37 80.7785 455.099 83.0773 456.016C85.3761 456.934 87.9315 456.976 90.2594 456.135V456.135Z" fill="#9F616A"/>
<path d="M118.679 694.215L102.244 694.214L94.425 630.82L118.682 630.821L118.679 694.215Z" fill="#9F616A"/>
<path d="M122.871 710.147L69.8759 710.145V709.474C69.8762 704.004 72.0495 698.758 75.9178 694.889C79.786 691.021 85.0324 688.848 90.5028 688.848H90.5042L122.872 688.849L122.871 710.147Z" fill="#2F2E41"/>
<path d="M204.713 680.461L189.017 685.334L162.751 627.11L185.917 619.918L204.713 680.461Z" fill="#9F616A"/>
<path d="M213.441 694.433L162.829 710.147L162.63 709.507C161.008 704.282 161.528 698.627 164.075 693.786C166.623 688.945 170.988 685.313 176.213 683.691L176.214 683.69L207.126 674.093L213.441 694.433Z" fill="#2F2E41"/>
<path d="M106.093 401.943L81.7518 429.82L100.808 431.535L106.093 401.943Z" fill="#E6E6E6"/>
<path d="M96.582 437.876C96.582 437.876 88.127 442.103 87.07 461.127C86.013 480.151 90.241 529.827 90.241 529.827C90.241 529.827 86.014 552.021 90.241 572.101C94.468 592.181 86.014 665.101 91.298 665.101C96.582 665.101 124.06 668.272 125.117 665.101C126.174 661.93 127.231 614.372 127.231 614.372C127.231 614.372 135.686 590.064 127.231 575.272C127.231 575.272 156.752 626.82 175.846 666.161C180.025 674.771 211.779 665.104 206.495 655.592C201.211 646.08 188.529 602.749 188.529 602.749C188.529 602.749 179.017 571.043 162.108 557.304L170.563 489.665C170.563 489.665 188.53 444.22 177.963 437.879C167.396 431.538 96.582 437.876 96.582 437.876Z" fill="#2F2E41"/>
<path d="M128.287 265.607C143.463 265.607 155.765 253.305 155.765 238.129C155.765 222.953 143.463 210.651 128.287 210.651C113.111 210.651 100.809 222.953 100.809 238.129C100.809 253.305 113.111 265.607 128.287 265.607Z" fill="#A0616A"/>
<path d="M158.936 267.721L124.776 287.801C124.776 287.801 111.696 295.167 106.81 307.881C101.602 321.431 104.629 340.509 106.81 344.871C111.037 353.326 105.037 374.463 105.037 374.463L99.753 423.078C99.753 423.078 80.73 441.044 95.526 443.158C110.322 445.272 136.743 442.101 152.596 443.158C168.449 444.215 186.415 446.329 181.131 435.758C175.847 425.187 169.506 417.791 175.847 396.658C180.809 380.118 180.594 318.275 180.266 292.158C180.221 288.571 179.259 285.056 177.472 281.946C175.684 278.836 173.131 276.236 170.055 274.391L158.936 267.721Z" fill="#E5E5E5"/>
<path opacity="0.1" d="M143.616 301.013L146.786 365.481L116.06 427.704L110.849 425.721L142.555 367.594L143.616 301.013Z" fill="black"/>
<path opacity="0.1" d="M178.488 379.219V371.819L142.559 431.005L178.488 379.219Z" fill="black"/>
<path d="M108.785 212.674L104.246 210.858C104.246 210.858 113.746 200.401 126.959 201.31L123.242 197.218C123.242 197.218 132.327 193.581 140.587 203.128C144.929 208.147 149.952 214.047 153.087 220.692H157.952L155.922 225.163L163.028 229.634L155.734 228.834C156.425 232.694 156.188 236.663 155.044 240.413L155.244 243.947C155.244 243.947 146.785 230.858 146.785 229.042V233.589C146.785 233.589 142.242 229.497 142.242 226.769L139.764 229.952L138.525 224.952L123.245 229.952L125.721 225.858L116.221 227.222L119.938 222.222C119.938 222.222 109.201 228.132 108.788 233.134C108.375 238.136 103.007 244.5 103.007 244.5L100.529 239.953C100.529 239.953 96.813 219.494 108.785 212.674Z" fill="#2F2E41"/>
<path d="M126.563 459.125C127.839 458.397 128.941 457.397 129.789 456.196C130.638 454.996 131.213 453.624 131.474 452.177C131.735 450.731 131.676 449.244 131.3 447.823C130.925 446.402 130.242 445.08 129.3 443.951L147.723 413.331L129.169 414.099L114.519 443.058C112.728 444.766 111.625 447.071 111.419 449.538C111.214 452.004 111.92 454.461 113.405 456.441C114.889 458.422 117.048 459.789 119.474 460.283C121.899 460.778 124.421 460.366 126.563 459.125V459.125Z" fill="#9F616A"/>
<path d="M168.449 281.462L176.375 279.877C176.375 279.877 200.154 297.315 192.756 332.191C185.358 367.067 152.596 419.91 152.596 419.91C152.596 419.91 145.196 429.422 143.084 431.535C140.972 433.648 136.743 431.535 138.857 434.706C140.971 437.877 135.686 439.99 135.686 439.99C135.686 439.99 112.435 439.99 114.549 431.535C116.663 423.08 152.596 362.835 152.596 362.835L147.312 306.822C147.312 306.822 143.083 279.348 168.449 281.462Z" fill="#E5E5E5"/>
</g>
<defs>
<clipPath id="clip0">
<rect width="742.417" height="712.573" fill="white"/>
</clipPath>
</defs>
</svg>
