<svg width="995" height="786" viewBox="0 0 995 786" fill="none" xmlns="http://www.w3.org/2000/svg">
<path opacity="0.1" d="M517.937 681.082C746.301 681.082 931.426 666.304 931.426 648.074C931.426 629.844 746.301 615.066 517.937 615.066C289.573 615.066 104.448 629.844 104.448 648.074C104.448 666.304 289.573 681.082 517.937 681.082Z" fill="#17A2B8"/>
<g opacity="0.1">
<path opacity="0.1" d="M149.066 498.398C150.311 494.507 155.361 492.716 160.342 494.397C161.059 494.638 161.752 494.946 162.415 495.317C162.736 495.227 163.066 495.147 163.387 495.087C163.114 493.97 163.009 492.816 163.076 491.666C161.366 490.477 159.98 488.859 159.048 486.965C158.117 485.071 157.672 482.964 157.754 480.843C156.029 479.676 154.639 478.057 153.726 476.152C152.776 474.265 152.329 472.153 152.432 470.031C150.709 468.858 149.319 467.236 148.405 465.33C146.011 460.448 146.984 454.957 150.633 453.057C154.281 451.156 159.165 453.607 161.568 458.488C162.517 460.379 162.96 462.495 162.852 464.619C164.567 465.801 165.957 467.416 166.889 469.31C167.821 471.204 168.264 473.312 168.174 475.432C169.888 476.617 171.278 478.234 172.209 480.129C173.141 482.024 173.584 484.133 173.496 486.255C175.211 487.436 176.601 489.052 177.533 490.945C178.465 492.839 178.907 494.947 178.818 497.067C180.545 498.239 181.939 499.861 182.855 501.768C183.293 502.691 183.62 503.665 183.828 504.669C184.428 503.762 185.16 502.956 185.998 502.279C186.098 501.507 186.267 500.747 186.504 500.008C188.148 494.887 192.536 491.766 196.321 493.006C200.105 494.247 201.837 499.478 200.212 504.599C199.541 506.798 198.251 508.744 196.505 510.19C196.404 510.958 196.235 511.715 196 512.451C195.201 515.166 193.422 517.463 191.028 518.873C191.216 519.527 191.352 520.196 191.437 520.873C192.441 521.864 193.274 523.024 193.898 524.304C194.535 525.58 194.949 526.961 195.124 528.385C196.132 529.375 196.968 530.535 197.595 531.816C198.23 533.093 198.645 534.474 198.821 535.897C199.832 536.888 200.668 538.053 201.292 539.337C203.695 544.219 202.703 549.72 199.074 551.6C195.445 553.481 190.542 551.06 188.138 546.169C187.505 544.891 187.09 543.511 186.913 542.088C184.885 540.089 183.581 537.439 183.215 534.576C181.188 532.577 179.884 529.928 179.518 527.064C178.511 526.074 177.675 524.913 177.047 523.634C176.418 522.354 176.004 520.974 175.821 519.553C174.817 518.561 173.984 517.401 173.36 516.122C172.723 514.845 172.308 513.464 172.134 512.041C171.508 511.441 170.949 510.77 170.47 510.04C168.469 510.461 166.394 510.33 164.458 509.66C163.738 509.414 163.042 509.102 162.376 508.73C160.212 509.321 157.926 509.237 155.808 508.49C150.876 506.8 147.831 502.289 149.066 498.398Z" fill="#3F3D56"/>
<g opacity="0.1">
<path opacity="0.1" d="M157.852 483.064C158.367 483.586 158.935 484.052 159.544 484.454C159.462 485.891 159.647 487.33 160.089 488.695C159.698 488.15 159.353 487.571 159.058 486.965C158.449 485.742 158.042 484.424 157.852 483.064V483.064Z" fill="black"/>
<path opacity="0.1" d="M152.53 472.261C153.048 472.778 153.615 473.24 154.223 473.642C154.141 475.081 154.326 476.524 154.767 477.893C153.589 476.23 152.821 474.297 152.53 472.261V472.261Z" fill="black"/>
<path opacity="0.1" d="M164.623 468.23C164.669 467.489 164.643 466.745 164.545 466.01C165.496 466.975 166.288 468.093 166.89 469.321C167.184 469.927 167.431 470.555 167.629 471.201C166.819 470.025 165.799 469.017 164.623 468.23V468.23Z" fill="black"/>
<path opacity="0.1" d="M198.383 533.706C197.958 533.093 197.476 532.523 196.943 532.006C196.855 531.328 196.711 530.659 196.515 530.005C196.938 530.593 197.312 531.215 197.634 531.866C197.929 532.458 198.18 533.074 198.383 533.706V533.706Z" fill="black"/>
<path opacity="0.1" d="M194.657 526.194C194.232 525.581 193.749 525.011 193.217 524.494C193.138 523.816 193.001 523.147 192.808 522.493C193.61 523.609 194.228 524.853 194.638 526.174L194.657 526.194Z" fill="black"/>
<path opacity="0.1" d="M163.183 493.907C163.694 494.425 164.258 494.885 164.866 495.277C164.794 496.427 164.899 497.581 165.178 498.698C164.85 498.757 164.525 498.834 164.205 498.928C163.538 498.559 162.842 498.251 162.123 498.008C157.141 496.327 152.092 498.118 150.856 502.008C150.547 502.977 150.49 504.011 150.691 505.009C149.891 504.144 149.321 503.08 149.038 501.922C148.755 500.763 148.768 499.549 149.076 498.398C150.321 494.507 155.371 492.716 160.352 494.397C161.068 494.638 161.762 494.946 162.424 495.317C162.745 495.227 163.076 495.147 163.397 495.087C163.304 494.698 163.232 494.304 163.183 493.907V493.907Z" fill="black"/>
<path opacity="0.1" d="M200.212 537.477C200.637 538.066 201.011 538.692 201.331 539.347C201.628 539.953 201.879 540.582 202.08 541.228C201.655 540.611 201.173 540.039 200.64 539.517C200.554 538.826 200.411 538.144 200.212 537.477V537.477Z" fill="black"/>
<path opacity="0.1" d="M169.945 479.063C169.991 478.322 169.965 477.578 169.867 476.842C170.82 477.806 171.613 478.925 172.212 480.153C172.506 480.756 172.753 481.381 172.951 482.024C172.14 480.85 171.12 479.846 169.945 479.063V479.063Z" fill="black"/>
<path opacity="0.1" d="M177.641 523.174C177.732 523.921 177.891 524.658 178.117 525.374C177.307 524.231 176.688 522.957 176.288 521.603C176.693 522.167 177.145 522.693 177.641 523.174V523.174Z" fill="black"/>
<path opacity="0.1" d="M185.025 538.197C185.123 538.944 185.286 539.681 185.512 540.398C185.121 539.852 184.776 539.273 184.48 538.667C184.16 538.025 183.893 537.355 183.682 536.667C184.09 537.213 184.539 537.724 185.025 538.197V538.197Z" fill="black"/>
<path opacity="0.1" d="M181.338 530.685C181.429 531.433 181.589 532.169 181.815 532.886C181.427 532.338 181.082 531.759 180.783 531.155C180.462 530.513 180.195 529.844 179.985 529.155C180.392 529.705 180.844 530.217 181.338 530.685V530.685Z" fill="black"/>
<path opacity="0.1" d="M173.944 515.652C174.034 516.403 174.193 517.143 174.42 517.862C174.051 517.313 173.726 516.735 173.447 516.132C173.121 515.491 172.851 514.821 172.64 514.131C173.029 514.678 173.465 515.187 173.944 515.652V515.652Z" fill="black"/>
<path opacity="0.1" d="M198.14 496.657C194.355 495.377 189.968 498.498 188.333 503.659C188.096 504.398 187.927 505.158 187.827 505.929C186.986 506.603 186.251 507.406 185.648 508.31C185.422 507.304 185.079 506.33 184.626 505.409C184.461 505.069 184.276 504.739 184.081 504.409C184.634 503.621 185.288 502.914 186.027 502.308C186.127 501.537 186.297 500.777 186.533 500.038C188.177 494.917 192.565 491.796 196.35 493.036C197.435 493.465 198.394 494.174 199.134 495.096C199.874 496.018 200.369 497.121 200.572 498.298C199.911 497.546 199.074 496.981 198.14 496.657V496.657Z" fill="black"/>
<path opacity="0.1" d="M180.589 500.688C180.635 499.947 180.609 499.203 180.511 498.468C181.464 499.431 182.256 500.55 182.856 501.778C183.149 502.385 183.397 503.013 183.595 503.659C182.787 502.48 181.766 501.472 180.589 500.688V500.688Z" fill="black"/>
<path opacity="0.1" d="M175.267 489.866C175.313 489.125 175.287 488.381 175.189 487.645C176.138 488.612 176.93 489.73 177.534 490.956C177.827 491.562 178.075 492.191 178.273 492.836C177.462 491.66 176.442 490.652 175.267 489.866V489.866Z" fill="black"/>
<path opacity="0.1" d="M188.722 545.709C188.816 546.46 188.979 547.2 189.209 547.92C188.82 547.369 188.475 546.787 188.177 546.179C187.857 545.536 187.591 544.867 187.38 544.179C187.787 544.724 188.236 545.236 188.722 545.709Z" fill="black"/>
</g>
<path opacity="0.1" d="M141.798 448.396C140.074 447.228 138.683 445.609 137.771 443.704C135.367 438.813 136.36 433.322 139.989 431.431C143.618 429.541 148.521 431.972 150.924 436.863C151.875 438.749 152.318 440.863 152.209 442.984C153.923 444.169 155.312 445.786 156.244 447.681C157.176 449.576 157.619 451.685 157.53 453.807C159.257 454.976 160.65 456.594 161.568 458.498C161.86 459.098 162.107 459.72 162.308 460.358C161.019 458.467 159.163 457.062 157.025 456.357C156.786 457.139 156.399 457.863 155.885 458.489C155.371 459.115 154.742 459.629 154.032 460.001C153.323 460.374 152.549 460.597 151.754 460.659C150.96 460.72 150.162 460.618 149.407 460.358C148.685 462.548 148.685 464.921 149.407 467.11C149.041 466.566 148.716 465.994 148.434 465.4C147.483 463.513 147.036 461.4 147.14 459.278C145.428 458.091 144.04 456.474 143.108 454.579C142.177 452.685 141.733 450.577 141.818 448.456L141.798 448.396Z" fill="#3F3D56"/>
<path opacity="0.1" d="M83.3078 379.039C81.8319 378.329 80.4049 377.517 79.0367 376.608L94.8757 364.705L76.2541 374.558C72.4891 371.48 69.3745 367.644 67.1011 363.286C64.8276 358.928 63.4431 354.139 63.0322 349.212L94.6909 349.552L62.9641 344.09C63.2373 339.114 64.5043 334.249 66.6861 329.799C68.8679 325.348 71.9178 321.407 75.6457 318.221C79.3737 315.036 83.6999 312.673 88.3548 311.281C93.0096 309.889 97.8934 309.498 102.702 310.131C107.51 310.765 112.14 312.409 116.304 314.963C120.467 317.516 124.074 320.923 126.9 324.972C129.727 329.022 131.712 333.626 132.732 338.498C133.752 343.37 133.785 348.406 132.829 353.293C135.127 354.386 137.306 355.727 139.328 357.293L122.789 380.939L142.646 360.254C146.836 364.486 149.934 369.724 151.66 375.496C153.386 381.268 153.685 387.391 152.531 393.312C158.538 396.189 163.636 400.745 167.242 406.46C170.849 412.175 172.819 418.819 172.925 425.631C173.032 432.442 171.273 439.148 167.847 444.98C164.422 450.811 159.47 455.535 153.556 458.609C147.643 461.683 141.007 462.985 134.408 462.365C127.809 461.744 121.513 459.227 116.24 455.101C110.967 450.975 106.93 445.407 104.59 439.033C102.25 432.659 101.703 425.737 103.009 419.058C95.8398 415.623 90.0004 409.812 86.4277 402.557C82.8551 395.301 81.7564 387.023 83.3078 379.049V379.039Z" fill="#17A2B8"/>
<path opacity="0.1" d="M149.416 369.816C153.005 377.077 154.102 385.37 152.53 393.352C158.537 396.229 163.635 400.785 167.242 406.5C170.848 412.215 172.818 418.859 172.925 425.671C173.032 432.482 171.272 439.188 167.847 445.02C164.421 450.851 159.469 455.575 153.555 458.649C147.642 461.724 141.006 463.025 134.407 462.405C127.808 461.784 121.512 459.267 116.239 455.141C110.966 451.015 106.929 445.447 104.589 439.073C102.249 432.699 101.702 425.777 103.008 419.098C96.0715 415.788 147.636 366.186 149.416 369.816Z" fill="black"/>
<path opacity="0.1" d="M109.644 317.284C112.54 317.284 114.888 314.87 114.888 311.893C114.888 308.915 112.54 306.501 109.644 306.501C106.747 306.501 104.4 308.915 104.4 311.893C104.4 314.87 106.747 317.284 109.644 317.284Z" fill="#17A2B8"/>
<path opacity="0.1" d="M79.0358 320.745C81.9319 320.745 84.2798 318.331 84.2798 315.353C84.2798 312.376 81.9319 309.962 79.0358 309.962C76.1396 309.962 73.7917 312.376 73.7917 315.353C73.7917 318.331 76.1396 320.745 79.0358 320.745Z" fill="#17A2B8"/>
<path opacity="0.1" d="M67.244 369.146C70.1402 369.146 72.488 366.733 72.488 363.755C72.488 360.778 70.1402 358.364 67.244 358.364C64.3478 358.364 62 360.778 62 363.755C62 366.733 64.3478 369.146 67.244 369.146Z" fill="#17A2B8"/>
<path opacity="0.1" d="M83.1706 393.322C86.0668 393.322 88.4147 390.908 88.4147 387.931C88.4147 384.953 86.0668 382.54 83.1706 382.54C80.2745 382.54 77.9266 384.953 77.9266 387.931C77.9266 390.908 80.2745 393.322 83.1706 393.322Z" fill="#17A2B8"/>
<path opacity="0.1" d="M104.925 443.524C107.821 443.524 110.169 441.111 110.169 438.133C110.169 435.155 107.821 432.742 104.925 432.742C102.029 432.742 99.681 435.155 99.681 438.133C99.681 441.111 102.029 443.524 104.925 443.524Z" fill="#17A2B8"/>
<path opacity="0.1" d="M104.925 443.524C107.821 443.524 110.169 441.111 110.169 438.133C110.169 435.155 107.821 432.742 104.925 432.742C102.029 432.742 99.681 435.155 99.681 438.133C99.681 441.111 102.029 443.524 104.925 443.524Z" fill="black"/>
<path opacity="0.1" d="M153.308 386.661C156.204 386.661 158.552 384.247 158.552 381.269C158.552 378.292 156.204 375.878 153.308 375.878C150.412 375.878 148.064 378.292 148.064 381.269C148.064 384.247 150.412 386.661 153.308 386.661Z" fill="#17A2B8"/>
<path opacity="0.1" d="M153.308 386.661C156.204 386.661 158.552 384.247 158.552 381.269C158.552 378.292 156.204 375.878 153.308 375.878C150.412 375.878 148.064 378.292 148.064 381.269C148.064 384.247 150.412 386.661 153.308 386.661Z" fill="black"/>
<path opacity="0.1" d="M158.902 469.871C162.385 468.06 163.436 462.939 161.403 458.208C161.51 458.408 161.617 458.598 161.714 458.798C164.117 463.689 163.125 469.181 159.486 471.071C155.847 472.961 150.963 470.531 148.56 465.64C148.463 465.44 148.366 465.24 148.278 465.029C150.778 469.521 155.419 471.681 158.902 469.871Z" fill="black"/>
<path opacity="0.1" d="M164.068 480.393C167.552 478.583 168.612 473.452 166.579 468.73C166.686 468.92 166.793 469.121 166.89 469.321C169.293 474.212 168.301 479.703 164.662 481.594C161.023 483.484 156.139 481.053 153.736 476.162C153.629 475.962 153.542 475.752 153.454 475.552C155.954 480.063 160.605 482.204 164.068 480.393Z" fill="black"/>
<path opacity="0.1" d="M169.244 490.906C172.727 489.095 173.788 483.974 171.745 479.243C171.862 479.443 171.959 479.633 172.066 479.843C174.469 484.724 173.467 490.226 169.838 492.106C166.209 493.986 161.315 491.566 158.912 486.675C158.805 486.475 158.717 486.275 158.63 486.065C161.121 490.556 165.761 492.716 169.244 490.906Z" fill="black"/>
<path opacity="0.1" d="M174.42 501.428C177.903 499.618 178.964 494.497 176.921 489.766C177.028 489.956 177.135 490.156 177.232 490.356C179.645 495.247 178.643 500.738 175.014 502.629C171.385 504.519 166.481 502.088 164.078 497.197C163.981 496.997 163.893 496.787 163.806 496.587C166.296 501.068 170.937 503.239 174.42 501.428Z" fill="black"/>
<path opacity="0.1" d="M179.596 511.941C183.079 510.13 184.13 505.009 182.097 500.288C182.204 500.478 182.311 500.678 182.408 500.878C184.811 505.769 183.819 511.261 180.19 513.151C176.561 515.042 171.657 512.601 169.254 507.72C169.157 507.51 169.069 507.31 168.972 507.11C171.472 511.591 176.113 513.751 179.596 511.941Z" fill="black"/>
<path opacity="0.1" d="M184.772 522.463C188.255 520.653 189.306 515.532 187.273 510.801C187.38 511.001 187.487 511.191 187.584 511.391C189.987 516.282 188.995 521.773 185.366 523.664C181.737 525.554 176.833 523.123 174.43 518.232C174.333 518.032 174.236 517.832 174.148 517.622C176.648 522.073 181.289 524.274 184.772 522.463Z" fill="black"/>
<path opacity="0.1" d="M189.948 532.986C193.421 531.175 194.482 526.044 192.448 521.323C192.555 521.513 192.663 521.713 192.76 521.913C195.163 526.804 194.171 532.296 190.532 534.186C186.893 536.077 182.009 533.636 179.606 528.755C179.509 528.545 179.411 528.345 179.324 528.145C181.824 532.626 186.465 534.796 189.948 532.986Z" fill="black"/>
<path opacity="0.1" d="M195.114 543.498C198.597 541.688 199.658 536.567 197.615 531.836C197.731 532.036 197.829 532.226 197.936 532.436C200.339 537.317 199.337 542.818 195.708 544.699C192.079 546.579 187.185 544.159 184.782 539.267C184.675 539.067 184.587 538.867 184.5 538.657C187 543.148 191.631 545.309 195.114 543.498Z" fill="black"/>
<path opacity="0.1" d="M198.549 550.41C202.032 548.6 203.082 543.478 201.049 538.747C201.156 538.947 201.263 539.137 201.36 539.347C203.763 544.229 202.771 549.73 199.142 551.61C195.513 553.491 190.61 551.07 188.206 546.179C188.109 545.979 188.012 545.779 187.924 545.569C190.396 550.08 195.036 552.221 198.549 550.41Z" fill="black"/>
<path opacity="0.1" d="M105.013 503.599C104.472 502.008 104.145 500.349 104.04 498.668C103.68 498.666 103.324 498.589 102.995 498.44C102.666 498.291 102.37 498.074 102.126 497.802C101.882 497.53 101.695 497.21 101.577 496.86C101.459 496.511 101.412 496.14 101.439 495.771C101.467 495.403 101.568 495.044 101.737 494.717C101.905 494.39 102.137 494.102 102.419 493.872C102.7 493.642 103.025 493.473 103.372 493.378C103.72 493.282 104.083 493.261 104.439 493.316C105.022 490.59 106.189 488.032 107.853 485.826C109.517 483.62 111.637 481.823 114.061 480.563C113.747 479.925 113.693 479.185 113.91 478.506C114.127 477.827 114.598 477.265 115.218 476.942C115.839 476.62 116.559 476.564 117.219 476.788C117.88 477.011 118.427 477.495 118.74 478.133C118.854 478.359 118.933 478.602 118.974 478.853C121.853 478.309 124.816 478.48 127.618 479.35C130.42 480.219 132.98 481.764 135.085 483.854C136.693 483.583 138.33 483.536 139.95 483.714L142.071 493.636L142.12 484.064C144.532 484.637 146.806 485.707 148.806 487.208C150.805 488.71 152.488 490.612 153.753 492.8C155.018 494.988 155.84 497.416 156.167 499.939C156.495 502.463 156.322 505.028 155.659 507.48C154.997 509.933 153.858 512.222 152.312 514.21C150.765 516.198 148.843 517.843 146.662 519.047C144.48 520.251 142.084 520.988 139.618 521.214C137.152 521.44 134.667 521.151 132.313 520.363C132.057 520.828 131.675 521.207 131.213 521.453C130.732 521.703 130.188 521.794 129.655 521.715C129.122 521.636 128.625 521.391 128.233 521.012C127.84 520.633 127.57 520.139 127.459 519.598C127.348 519.056 127.402 518.492 127.613 517.982C126.779 517.384 125.995 516.714 125.269 515.982C121.442 516.619 117.517 515.995 114.056 514.198C110.596 512.401 107.777 509.524 106.005 505.979L115.88 504.269L105.013 503.599Z" fill="#17A2B8"/>
<g opacity="0.1">
<path opacity="0.1" d="M120.268 508.42C123.916 503.419 126.154 497.617 128.723 491.996C129.751 489.683 130.908 487.432 132.186 485.254L134.132 482.944C134.463 483.234 134.784 483.524 135.105 483.824C136.713 483.553 138.349 483.506 139.969 483.684L142.09 493.606L142.12 484.064C144.532 484.637 146.806 485.707 148.806 487.208C150.805 488.71 152.488 490.612 153.753 492.8C155.018 494.988 155.84 497.416 156.167 499.939C156.495 502.463 156.322 505.028 155.659 507.48C154.997 509.933 153.858 512.222 152.312 514.21C150.765 516.198 148.843 517.843 146.662 519.047C144.48 520.251 142.084 520.988 139.618 521.214C137.152 521.44 134.667 521.151 132.313 520.363C132.057 520.828 131.675 521.207 131.213 521.453C130.732 521.703 130.188 521.794 129.655 521.715C129.122 521.636 128.625 521.391 128.233 521.012C127.84 520.633 127.57 520.139 127.459 519.598C127.348 519.056 127.402 518.492 127.613 517.982C126.779 517.384 125.995 516.714 125.269 515.982C121.521 516.6 117.679 516.016 114.265 514.311C116.561 512.693 118.588 510.703 120.268 508.42Z" fill="black"/>
</g>
<path opacity="0.1" d="M184.84 487.155C184.685 486.84 184.591 486.496 184.565 486.144C184.539 485.792 184.581 485.437 184.689 485.102C184.796 484.766 184.967 484.456 185.192 484.189C185.417 483.921 185.691 483.702 185.998 483.544C186.365 483.351 186.772 483.251 187.185 483.254C187.927 479.203 189.94 475.514 192.915 472.751C192.434 470.829 192.254 468.841 192.38 466.86L202.002 465.2L192.653 464.589C192.822 463.686 193.056 462.797 193.353 461.929C192.986 461.677 192.688 461.333 192.487 460.929C192.253 460.447 192.165 459.904 192.233 459.37C192.302 458.836 192.524 458.335 192.871 457.932C193.218 457.529 193.675 457.242 194.182 457.107C194.689 456.973 195.224 456.997 195.717 457.178C197.436 454.664 199.732 452.627 202.401 451.246C205.546 449.606 209.083 448.933 212.59 449.307C216.097 449.682 219.425 451.088 222.174 453.358C224.923 455.628 226.977 458.665 228.089 462.105C229.202 465.544 229.326 469.241 228.446 472.751C228.904 472.953 229.296 473.284 229.576 473.707C229.857 474.129 230.015 474.625 230.031 475.136C230.047 475.647 229.921 476.153 229.668 476.593C229.415 477.034 229.045 477.391 228.602 477.623C228.269 477.796 227.905 477.894 227.532 477.912C227.16 477.929 226.788 477.864 226.442 477.723C225.503 479.341 224.332 480.804 222.969 482.064C223.966 486.053 223.669 490.267 222.122 494.067L209.251 490.586L220.76 496.817C219.032 499.652 216.602 501.964 213.719 503.515C210.835 505.066 207.603 505.801 204.352 505.644C201.101 505.487 197.95 504.444 195.22 502.623C192.491 500.801 190.282 498.266 188.819 495.277C187.801 493.196 187.162 490.942 186.932 488.625C186.49 488.584 186.066 488.427 185.7 488.17C185.334 487.913 185.038 487.563 184.84 487.155V487.155Z" fill="#17A2B8"/>
<path opacity="0.1" d="M184.84 487.155C184.685 486.84 184.591 486.496 184.565 486.144C184.539 485.792 184.581 485.437 184.689 485.102C184.796 484.766 184.967 484.456 185.192 484.189C185.417 483.921 185.691 483.702 185.998 483.544C186.365 483.351 186.772 483.251 187.185 483.254C187.927 479.203 189.94 475.514 192.915 472.751C192.838 472.441 192.769 472.121 192.711 471.811C193.06 472.067 193.386 472.355 193.684 472.671C195.426 474.672 196.321 477.262 198.033 479.243C200.178 481.518 203.063 482.903 206.137 483.134C209.183 483.349 212.242 483.097 215.215 482.384C217.666 481.734 220.195 481.448 222.726 481.533L223.445 481.634L222.998 482.064C223.995 486.053 223.698 490.267 222.151 494.067L209.251 490.586L220.76 496.817C219.032 499.652 216.602 501.964 213.719 503.515C210.835 505.066 207.603 505.801 204.352 505.644C201.101 505.487 197.95 504.444 195.22 502.623C192.491 500.801 190.282 498.266 188.819 495.277C187.801 493.196 187.162 490.942 186.932 488.625C186.49 488.584 186.066 488.427 185.7 488.17C185.334 487.913 185.038 487.563 184.84 487.155V487.155Z" fill="black"/>
</g>
<path opacity="0.1" d="M398.969 38.9565C395.123 38.2058 391.146 38.6516 387.547 40.2368C385.388 41.2258 383.051 41.7369 380.688 41.7369C378.325 41.7369 375.988 41.2258 373.829 40.2368C371.277 39.087 368.513 38.521 365.728 38.578C362.943 38.635 360.203 39.3136 357.698 40.5669C356.267 41.3437 354.675 41.7522 353.057 41.7572C346.519 41.7572 341.081 34.9856 339.952 26.0534C341.256 25.071 342.365 23.8421 343.221 22.4325C347.054 16.081 352.95 12 359.654 12C366.357 12 372.194 16.001 376.028 22.3125C377.173 24.2079 378.773 25.7685 380.675 26.8441C382.576 27.9196 384.715 28.4741 386.885 28.454H387.061C392.217 28.424 396.722 32.715 398.969 38.9565Z" fill="#17A2B8"/>
<path opacity="0.1" d="M356.836 23.9158L346.27 30.8074L352.682 18.8045C350.863 17.315 348.614 16.4914 346.29 16.464H346.124C345.391 16.4732 344.659 16.4163 343.935 16.2939L340.345 18.6345L341.882 15.7638C339.352 14.8587 337.162 13.1623 335.617 10.9126L329.186 15.0436L333.233 7.4718C329.487 2.84068 324.428 0 318.873 0C312.208 0 306.225 4.08098 302.431 10.4325C301.295 12.3297 299.692 13.8842 297.783 14.9383C295.874 15.9923 293.728 16.5083 291.563 16.434H291.242C283.887 16.434 277.913 25.006 277.913 35.5986C277.913 46.1912 283.887 54.7532 291.242 54.7532C292.86 54.7482 294.452 54.3397 295.883 53.5629C298.388 52.3086 301.128 51.6302 303.914 51.5749C306.7 51.5197 309.464 52.0888 312.014 53.2429C314.173 54.2288 316.51 54.7383 318.873 54.7383C321.236 54.7383 323.572 54.2288 325.732 53.2429C328.262 52.1133 331 51.5573 333.758 51.6125C336.517 51.6677 339.231 52.333 341.717 53.5629C343.136 54.319 344.71 54.7167 346.309 54.7232C353.674 54.7232 359.638 46.1512 359.638 35.5686C359.664 31.5049 358.701 27.4991 356.836 23.9158V23.9158Z" fill="#17A2B8"/>
<path opacity="0.1" d="M179.09 177.53C173.596 176.461 167.917 177.095 162.774 179.35C159.688 180.757 156.348 181.48 152.972 181.471C149.596 181.462 146.26 180.723 143.18 179.3C139.536 177.658 135.588 176.849 131.61 176.93C127.632 177.012 123.719 177.981 120.141 179.771C118.095 180.879 115.819 181.462 113.506 181.471C104.166 181.471 96.3925 171.799 94.7775 159.036C96.6438 157.637 98.2296 155.881 99.4475 153.864C104.925 144.792 113.409 138.961 122.934 138.961C132.458 138.961 140.835 144.722 146.284 153.694C147.921 156.414 150.215 158.651 152.943 160.188C155.671 161.725 158.74 162.51 161.85 162.466H162.093C169.468 162.456 175.909 168.588 179.09 177.53Z" fill="#17A2B8"/>
<path opacity="0.1" d="M207.499 137.47L192.4 147.313L201.565 130.179C198.967 128.047 195.752 126.868 192.429 126.828H192.186C191.137 126.844 190.088 126.763 189.053 126.588L183.955 129.979L186.154 125.878C182.526 124.574 179.392 122.123 177.203 118.876L168.038 124.877L173.807 113.975C168.447 107.363 161.228 103.312 153.289 103.312C143.764 103.312 135.28 109.133 129.802 118.206C128.18 120.928 125.885 123.159 123.15 124.672C120.415 126.185 117.339 126.925 114.236 126.818H113.72C103.203 126.818 94.6802 139.071 94.6802 154.194C94.6802 169.318 103.203 181.571 113.72 181.571C116.034 181.565 118.312 180.978 120.355 179.861C123.934 178.072 127.847 177.105 131.825 177.025C135.804 176.946 139.751 177.756 143.394 179.4C146.474 180.823 149.81 181.562 153.186 181.571C156.562 181.58 159.902 180.857 162.989 179.45C166.605 177.837 170.517 177.042 174.458 177.119C178.4 177.197 182.279 178.146 185.833 179.901C187.857 180.99 190.106 181.563 192.39 181.571C202.907 181.571 211.43 169.308 211.43 154.194C211.503 148.369 210.152 142.618 207.499 137.47V137.47Z" fill="#17A2B8"/>
<path opacity="0.1" d="M789.711 77.9659C793.558 77.2159 797.534 77.6616 801.133 79.2463C803.29 80.2357 805.625 80.747 807.987 80.747C810.349 80.747 812.685 80.2357 814.841 79.2463C817.393 78.0964 820.157 77.5304 822.942 77.5874C825.728 77.6444 828.468 78.323 830.972 79.5763C832.403 80.352 833.996 80.7604 835.613 80.7666C842.151 80.7666 847.6 73.995 848.728 65.0628C847.422 64.083 846.312 62.8536 845.459 61.4419C841.645 55.0704 835.681 50.9594 828.997 50.9594C822.313 50.9594 816.466 54.9604 812.633 61.2719C811.49 63.1758 809.888 64.7442 807.982 65.8253C806.077 66.9065 803.932 67.4638 801.756 67.4434H801.59C796.414 67.4334 791.9 71.7244 789.711 77.9659Z" fill="#17A2B8"/>
<path opacity="0.1" d="M769.786 49.9592L780.352 56.8308L773.93 44.8279C775.749 43.3398 777.998 42.5163 780.322 42.4874H780.498C781.231 42.496 781.963 42.4391 782.687 42.3173L786.267 44.6579L784.73 41.7872C787.278 40.8972 789.49 39.2074 791.054 36.956L797.465 41.1371L793.408 33.5652C797.164 28.9341 802.164 26.0934 807.778 26.0934C814.443 26.0934 820.426 30.1744 824.22 36.5259C825.355 38.4238 826.958 39.9789 828.867 41.0331C830.776 42.0872 832.922 42.6028 835.088 42.5274H835.438C842.803 42.5274 848.767 51.0995 848.767 61.692C848.767 72.2846 842.803 80.8467 835.438 80.8467C833.821 80.8392 832.229 80.4309 830.797 79.6564C828.292 78.402 825.552 77.7236 822.766 77.6684C819.98 77.6131 817.216 78.1822 814.666 79.3363C812.509 80.322 810.173 80.8313 807.812 80.8313C805.451 80.8313 803.116 80.322 800.958 79.3363C798.426 78.2065 795.687 77.6504 792.927 77.7056C790.167 77.7609 787.451 78.4262 784.963 79.6564C783.544 80.4135 781.97 80.8113 780.371 80.8166C773.016 80.8166 767.042 72.2446 767.042 61.662C766.99 57.5865 767.934 53.5628 769.786 49.9592V49.9592Z" fill="#17A2B8"/>
<path d="M602.396 649.074L429.032 646.783L429.548 642.212L437.925 566.804H590.176L601.374 642.212L602.23 647.934L602.396 649.074Z" fill="#D0D2D5"/>
<path opacity="0.1" d="M602.23 647.934H515.719L429.032 646.784L429.548 642.212H601.374L602.23 647.934Z" fill="black"/>
<path d="M630.182 643.363H400.136V649.074H630.182V643.363Z" fill="#D0D2D5"/>
<path d="M849.662 113.895C849.675 109.953 848.166 106.168 845.466 103.37C842.766 100.572 839.097 98.9896 835.263 98.971H192.828C190.928 98.9802 189.049 99.374 187.297 100.13C185.545 100.886 183.955 101.989 182.618 103.377C181.281 104.765 180.223 106.409 179.504 108.217C178.785 110.025 178.42 111.961 178.429 113.915V514.261H849.662V113.895Z" fill="#343A40"/>
<path d="M178.429 510.26V557.152C178.429 561.078 179.946 564.843 182.646 567.619C185.346 570.396 189.009 571.955 192.828 571.955H835.263C839.082 571.955 842.744 570.396 845.445 567.619C848.145 564.843 849.662 561.078 849.662 557.152V510.26H178.429Z" fill="#D0D2D5"/>
<path d="M825.213 124.077H206.215V483.974H825.213V124.077Z" fill="white"/>
<path d="M517.383 554.161C519.656 554.164 521.899 553.635 523.944 552.614C525.988 551.593 527.78 550.108 529.184 548.27C529.611 547.71 530.001 547.122 530.352 546.509L522.111 545.079L531.013 545.139C531.867 543.23 532.332 541.162 532.38 539.062C532.429 536.962 532.06 534.874 531.295 532.926L519.358 539.287L530.371 530.965C529.337 529.138 527.948 527.548 526.291 526.295C524.634 525.043 522.744 524.154 520.738 523.684C518.733 523.214 516.655 523.172 514.633 523.563C512.612 523.953 510.69 524.767 508.987 525.953C507.285 527.14 505.837 528.673 504.736 530.459C503.634 532.244 502.901 534.244 502.582 536.333C502.264 538.422 502.366 540.556 502.884 542.603C503.401 544.649 504.323 546.565 505.591 548.23V548.23C506.99 550.074 508.778 551.566 510.821 552.594C512.864 553.621 515.108 554.157 517.383 554.161V554.161Z" fill="#17A2B8"/>
<path opacity="0.1" d="M532.385 571.945L601.549 643.363L590.935 571.945H532.385Z" fill="black"/>
<path opacity="0.1" d="M825.398 124.117H205.729V145.142H825.398V124.117Z" fill="#444053"/>
<path opacity="0.3" d="M607.017 127.778H421.443C421.132 127.778 420.879 128.038 420.879 128.358V139.991C420.879 140.311 421.132 140.571 421.443 140.571H607.017C607.329 140.571 607.582 140.311 607.582 139.991V128.358C607.582 128.038 607.329 127.778 607.017 127.778Z" fill="#17A2B8"/>
<path d="M602.036 135.5H601.578L601.413 135.35C601.979 134.65 602.289 133.769 602.289 132.859C602.283 132.112 602.062 131.384 601.654 130.766C601.246 130.148 600.669 129.668 599.996 129.387C599.323 129.105 598.584 129.035 597.872 129.185C597.161 129.335 596.508 129.699 595.997 130.23C595.486 130.761 595.139 131.435 595.001 132.169C594.863 132.902 594.938 133.661 595.219 134.35C595.5 135.039 595.973 135.627 596.578 136.04C597.184 136.453 597.894 136.672 598.621 136.67C599.507 136.667 600.364 136.345 601.043 135.76L601.209 135.91V136.38L604.059 139.311L604.906 138.431L602.036 135.5ZM598.621 135.5C598.112 135.502 597.615 135.349 597.191 135.06C596.768 134.771 596.437 134.359 596.241 133.877C596.045 133.394 595.993 132.863 596.091 132.35C596.189 131.837 596.433 131.366 596.791 130.996C597.15 130.625 597.608 130.373 598.106 130.27C598.605 130.167 599.122 130.219 599.592 130.419C600.062 130.618 600.463 130.957 600.746 131.391C601.029 131.826 601.18 132.337 601.18 132.859C601.182 133.206 601.118 133.55 600.99 133.871C600.863 134.191 600.674 134.483 600.437 134.729C600.199 134.974 599.915 135.169 599.604 135.301C599.292 135.434 598.958 135.501 598.621 135.5V135.5Z" fill="#3F3D56"/>
<path opacity="0.8" d="M216.869 138.481C218.937 138.481 220.614 136.756 220.614 134.63C220.614 132.503 218.937 130.779 216.869 130.779C214.8 130.779 213.123 132.503 213.123 134.63C213.123 136.756 214.8 138.481 216.869 138.481Z" fill="#FA5959"/>
<path opacity="0.8" d="M227.172 138.481C229.24 138.481 230.917 136.756 230.917 134.63C230.917 132.503 229.24 130.779 227.172 130.779C225.103 130.779 223.426 132.503 223.426 134.63C223.426 136.756 225.103 138.481 227.172 138.481Z" fill="#FED253"/>
<path opacity="0.8" d="M237.485 138.481C239.553 138.481 241.23 136.756 241.23 134.63C241.23 132.503 239.553 130.779 237.485 130.779C235.416 130.779 233.739 132.503 233.739 134.63C233.739 136.756 235.416 138.481 237.485 138.481Z" fill="#8CCF4D"/>
<path d="M853.087 649.184C870.437 649.184 884.502 646.403 884.502 642.973C884.502 639.542 870.437 636.761 853.087 636.761C835.737 636.761 821.671 639.542 821.671 642.973C821.671 646.403 835.737 649.184 853.087 649.184Z" fill="#17A2B8"/>
<path d="M852.561 645.253C854.582 645.253 856.22 643.05 856.22 640.332C856.22 637.614 854.582 635.411 852.561 635.411C850.541 635.411 848.903 637.614 848.903 640.332C848.903 643.05 850.541 645.253 852.561 645.253Z" fill="#3F3D56"/>
<path d="M852.561 639.232C854.582 639.232 856.22 637.028 856.22 634.31C856.22 631.593 854.582 629.389 852.561 629.389C850.541 629.389 848.903 631.593 848.903 634.31C848.903 637.028 850.541 639.232 852.561 639.232Z" fill="#3F3D56"/>
<path d="M852.561 633.22C854.582 633.22 856.22 631.017 856.22 628.299C856.22 625.581 854.582 623.378 852.561 623.378C850.541 623.378 848.903 625.581 848.903 628.299C848.903 631.017 850.541 633.22 852.561 633.22Z" fill="#3F3D56"/>
<path d="M852.561 627.199C854.582 627.199 856.22 624.995 856.22 622.278C856.22 619.56 854.582 617.356 852.561 617.356C850.541 617.356 848.903 619.56 848.903 622.278C848.903 624.995 850.541 627.199 852.561 627.199Z" fill="#3F3D56"/>
<path d="M852.561 621.177C854.582 621.177 856.22 618.974 856.22 616.256C856.22 613.538 854.582 611.335 852.561 611.335C850.541 611.335 848.903 613.538 848.903 616.256C848.903 618.974 850.541 621.177 852.561 621.177Z" fill="#3F3D56"/>
<path d="M852.561 615.166C854.582 615.166 856.22 612.963 856.22 610.245C856.22 607.527 854.582 605.323 852.561 605.323C850.541 605.323 848.903 607.527 848.903 610.245C848.903 612.963 850.541 615.166 852.561 615.166Z" fill="#3F3D56"/>
<path d="M852.561 609.144C854.582 609.144 856.22 606.941 856.22 604.223C856.22 601.505 854.582 599.302 852.561 599.302C850.541 599.302 848.903 601.505 848.903 604.223C848.903 606.941 850.541 609.144 852.561 609.144Z" fill="#3F3D56"/>
<path d="M866.25 563.083C866.75 562.429 867.205 561.741 867.612 561.023L858 559.402L868.4 559.472C869.393 557.24 869.934 554.824 869.991 552.371C870.048 549.917 869.62 547.477 868.731 545.199L854.78 552.641L867.642 542.918C866.435 540.783 864.813 538.925 862.878 537.461C860.943 535.997 858.735 534.958 856.393 534.409C854.051 533.859 851.623 533.812 849.262 534.268C846.901 534.725 844.656 535.676 842.668 537.062C840.68 538.449 838.99 540.241 837.704 542.328C836.419 544.415 835.565 546.751 835.195 549.192C834.825 551.633 834.948 554.125 835.556 556.515C836.163 558.905 837.242 561.141 838.727 563.083C837.945 564.099 837.273 565.199 836.722 566.364L849.205 573.036L835.895 568.444C834.966 571.279 834.738 574.307 835.232 577.255C835.727 580.203 836.927 582.978 838.727 585.329C836.697 587.985 835.435 591.175 835.085 594.533C834.735 597.892 835.312 601.284 836.748 604.322C838.184 607.36 840.423 609.921 843.208 611.713C845.993 613.505 849.213 614.455 852.498 614.455C855.784 614.455 859.003 613.505 861.788 611.713C864.573 609.921 866.812 607.36 868.248 604.322C869.685 601.284 870.261 597.892 869.911 594.533C869.561 591.175 868.299 587.985 866.27 585.329C868.701 582.154 870.023 578.231 870.023 574.191C870.023 570.151 868.701 566.228 866.27 563.053L866.25 563.083Z" fill="#17A2B8"/>
<path opacity="0.1" d="M834.952 574.186C834.95 578.232 836.28 582.159 838.727 585.329C836.697 587.985 835.435 591.175 835.085 594.533C834.735 597.892 835.312 601.284 836.748 604.322C838.184 607.36 840.423 609.921 843.208 611.713C845.993 613.505 849.213 614.455 852.498 614.455C855.784 614.455 859.003 613.505 861.788 611.713C864.573 609.921 866.812 607.36 868.248 604.322C869.685 601.284 870.261 597.892 869.911 594.533C869.561 591.175 868.299 587.985 866.27 585.329C868.595 582.258 834.952 572.165 834.952 574.186Z" fill="black"/>
<path d="M206.4 773.034C231.38 773.034 251.631 769.03 251.631 764.092C251.631 759.153 231.38 755.15 206.4 755.15C181.42 755.15 161.169 759.153 161.169 764.092C161.169 769.03 181.42 773.034 206.4 773.034Z" fill="#17A2B8"/>
<path d="M205.641 767.383C208.548 767.383 210.905 764.208 210.905 760.291C210.905 756.374 208.548 753.199 205.641 753.199C202.734 753.199 200.378 756.374 200.378 760.291C200.378 764.208 202.734 767.383 205.641 767.383Z" fill="#3F3D56"/>
<path d="M205.641 758.721C208.548 758.721 210.905 755.545 210.905 751.629C210.905 747.712 208.548 744.537 205.641 744.537C202.734 744.537 200.378 747.712 200.378 751.629C200.378 755.545 202.734 758.721 205.641 758.721Z" fill="#3F3D56"/>
<path d="M205.641 750.058C208.548 750.058 210.905 746.883 210.905 742.967C210.905 739.05 208.548 735.875 205.641 735.875C202.734 735.875 200.378 739.05 200.378 742.967C200.378 746.883 202.734 750.058 205.641 750.058Z" fill="#3F3D56"/>
<path d="M205.641 741.396C208.548 741.396 210.905 738.221 210.905 734.305C210.905 730.388 208.548 727.213 205.641 727.213C202.734 727.213 200.378 730.388 200.378 734.305C200.378 738.221 202.734 741.396 205.641 741.396Z" fill="#3F3D56"/>
<path d="M205.641 732.734C208.548 732.734 210.905 729.559 210.905 725.642C210.905 721.726 208.548 718.551 205.641 718.551C202.734 718.551 200.378 721.726 200.378 725.642C200.378 729.559 202.734 732.734 205.641 732.734Z" fill="#3F3D56"/>
<path d="M205.641 724.062C208.548 724.062 210.905 720.887 210.905 716.97C210.905 713.054 208.548 709.879 205.641 709.879C202.734 709.879 200.378 713.054 200.378 716.97C200.378 720.887 202.734 724.062 205.641 724.062Z" fill="#3F3D56"/>
<path d="M205.641 715.4C208.548 715.4 210.905 712.225 210.905 708.308C210.905 704.392 208.548 701.217 205.641 701.217C202.734 701.217 200.378 704.392 200.378 708.308C200.378 712.225 202.734 715.4 205.641 715.4Z" fill="#3F3D56"/>
<path d="M225.352 649.034C226.065 648.079 226.715 647.077 227.298 646.033L213.463 643.693L228.427 643.813C229.861 640.6 230.643 637.12 230.725 633.586C230.807 630.052 230.187 626.537 228.904 623.258L208.842 634L227.327 619.997C225.596 616.909 223.265 614.221 220.479 612.101C217.692 609.981 214.511 608.474 211.132 607.674C207.754 606.874 204.252 606.798 200.844 607.452C197.437 608.105 194.196 609.474 191.326 611.472C188.455 613.47 186.016 616.055 184.161 619.065C182.305 622.076 181.073 625.447 180.541 628.969C180.009 632.49 180.189 636.087 181.069 639.534C181.95 642.981 183.511 646.205 185.657 649.004C184.521 650.464 183.543 652.047 182.739 653.725L200.708 663.327L181.552 656.716C180.209 660.815 179.885 665.194 180.609 669.455C181.333 673.716 183.082 677.723 185.696 681.112C182.769 684.937 180.948 689.533 180.442 694.372C179.935 699.212 180.763 704.1 182.832 708.478C184.9 712.857 188.125 716.548 192.138 719.131C196.151 721.714 200.79 723.084 205.524 723.084C210.259 723.084 214.898 721.714 218.911 719.131C222.924 716.548 226.149 712.857 228.217 708.478C230.286 704.1 231.114 699.212 230.607 694.372C230.101 689.533 228.28 684.937 225.352 681.112C228.851 676.541 230.753 670.894 230.753 665.078C230.753 659.262 228.851 653.614 225.352 649.044V649.034Z" fill="#17A2B8"/>
<path opacity="0.1" d="M180.297 665.108C180.298 670.914 182.2 676.552 185.696 681.112C182.769 684.937 180.948 689.533 180.441 694.372C179.935 699.212 180.763 704.1 182.832 708.478C184.9 712.857 188.125 716.548 192.138 719.131C196.151 721.714 200.79 723.084 205.524 723.084C210.259 723.084 214.898 721.714 218.911 719.131C222.924 716.548 226.149 712.857 228.217 708.478C230.286 704.1 231.114 699.212 230.607 694.372C230.101 689.533 228.28 684.937 225.352 681.112C228.709 676.691 180.297 662.157 180.297 665.108Z" fill="black"/>
<g clip-path="url(#clip0)">
<path d="M516.185 433C658.543 433 773.947 424.677 773.947 414.41C773.947 404.144 658.543 395.821 516.185 395.821C373.827 395.821 258.423 404.144 258.423 414.41C258.423 424.677 373.827 433 516.185 433Z" fill="#F2F2F2"/>
<path d="M506.305 210.903C464.309 210.903 434.156 240.255 434.156 308.743C434.156 386.363 464.309 406.909 506.305 406.909C548.302 406.909 580.251 384.406 580.251 308.743C580.251 227.862 548.302 210.903 506.305 210.903ZM506.581 381.145C477.494 381.145 462.297 362.555 462.297 308.793C462.297 261.357 478.116 236.342 507.203 236.342C536.291 236.342 552.11 252.773 552.11 308.793C552.11 361.199 535.669 381.145 506.581 381.145Z" fill="#343A40"/>
<path d="M409.008 352.771H391.644V297.069C391.644 294.111 390.566 291.273 388.645 289.181C386.725 287.089 384.12 285.914 381.404 285.914H377.336C375.991 285.914 374.659 286.202 373.417 286.763C372.175 287.324 371.046 288.145 370.095 289.181C369.144 290.217 368.39 291.447 367.875 292.8C367.361 294.154 367.096 295.604 367.096 297.069V352.771H318.118C317.111 352.771 316.12 352.488 315.243 351.948C314.366 351.408 313.632 350.63 313.112 349.69C312.591 348.75 312.303 347.679 312.275 346.582C312.247 345.485 312.479 344.398 312.95 343.428L364.787 236.548C365.433 235.215 365.825 233.754 365.938 232.252C366.052 230.75 365.885 229.238 365.447 227.809C365.01 226.379 364.311 225.061 363.393 223.933C362.475 222.806 361.356 221.893 360.105 221.249L357.045 219.675C354.669 218.453 351.953 218.272 349.458 219.171C346.963 220.07 344.881 221.979 343.642 224.503L280.42 353.343C279.343 355.537 278.78 357.986 278.78 360.474V360.474C278.78 362.461 279.139 364.428 279.837 366.263C280.535 368.098 281.558 369.765 282.847 371.17C284.136 372.575 285.667 373.689 287.352 374.449C289.036 375.209 290.842 375.601 292.665 375.601H367.096V410.823C367.096 412.579 367.413 414.318 368.03 415.94C368.647 417.562 369.551 419.036 370.691 420.278C371.831 421.52 373.184 422.505 374.673 423.177C376.162 423.849 377.758 424.194 379.37 424.194H379.37C380.982 424.194 382.578 423.849 384.067 423.177C385.556 422.505 386.91 421.52 388.049 420.278C389.189 419.036 390.093 417.562 390.71 415.94C391.327 414.318 391.644 412.579 391.644 410.823V375.601H409.008C411.787 375.601 414.452 374.398 416.417 372.257C418.382 370.117 419.486 367.213 419.486 364.186V364.186C419.486 361.159 418.382 358.255 416.417 356.115C414.452 353.974 411.787 352.771 409.008 352.771V352.771Z" fill="#17A2B8"/>
<path d="M730.537 352.771H713.174V297.069C713.174 294.111 712.095 291.273 710.174 289.181C708.254 287.089 705.649 285.914 702.934 285.914H698.865C697.52 285.914 696.189 286.202 694.946 286.763C693.704 287.324 692.575 288.145 691.624 289.181C690.673 290.217 689.919 291.447 689.404 292.8C688.89 294.154 688.625 295.604 688.625 297.069V352.771H639.648C638.64 352.771 637.649 352.488 636.772 351.948C635.895 351.408 635.161 350.63 634.641 349.69C634.121 348.75 633.832 347.679 633.804 346.582C633.776 345.485 634.008 344.398 634.479 343.428L686.316 236.548C686.962 235.215 687.354 233.754 687.467 232.252C687.581 230.75 687.414 229.238 686.976 227.809C686.539 226.379 685.84 225.061 684.922 223.933C684.004 222.806 682.885 221.893 681.634 221.249L678.574 219.675C676.198 218.453 673.482 218.272 670.987 219.171C668.492 220.07 666.41 221.979 665.171 224.503L601.949 353.343C600.872 355.537 600.309 357.986 600.309 360.474V360.474C600.309 364.486 601.772 368.333 604.376 371.17C606.98 374.007 610.512 375.601 614.194 375.601H688.625V410.823C688.625 414.369 689.918 417.77 692.22 420.278C694.522 422.786 697.644 424.194 700.899 424.194V424.194C704.155 424.194 707.277 422.786 709.578 420.278C711.88 417.77 713.174 414.369 713.174 410.823V375.601H730.537C733.316 375.601 735.981 374.398 737.946 372.257C739.912 370.117 741.015 367.213 741.015 364.186V364.186C741.015 361.159 739.911 358.255 737.946 356.115C735.981 353.974 733.316 352.771 730.537 352.771Z" fill="#17A2B8"/>
<path d="M413.798 346.249H396.435V290.547C396.435 289.082 396.17 287.631 395.655 286.278C395.14 284.924 394.386 283.694 393.435 282.659C392.484 281.623 391.356 280.801 390.113 280.24C388.871 279.68 387.539 279.391 386.194 279.391H382.126C379.41 279.391 376.805 280.567 374.885 282.659C372.965 284.751 371.886 287.588 371.886 290.547V346.249H322.908C321.901 346.249 320.91 345.965 320.033 345.425C319.156 344.885 318.422 344.107 317.902 343.167C317.381 342.227 317.093 341.157 317.065 340.059C317.037 338.962 317.269 337.876 317.74 336.905L369.577 230.025C370.223 228.693 370.615 227.231 370.728 225.729C370.842 224.227 370.675 222.716 370.237 221.286C369.8 219.856 369.101 218.538 368.183 217.411C367.265 216.283 366.146 215.37 364.895 214.727L361.835 213.152C359.459 211.93 356.743 211.75 354.248 212.648C351.753 213.547 349.671 215.456 348.432 217.981L285.21 346.82C284.133 349.014 283.57 351.464 283.57 353.951V353.951C283.57 357.963 285.033 361.811 287.637 364.647C290.241 367.484 293.773 369.078 297.455 369.078H371.886V404.3C371.886 406.056 372.203 407.795 372.82 409.417C373.437 411.04 374.341 412.514 375.481 413.755C376.621 414.997 377.974 415.982 379.463 416.654C380.952 417.326 382.548 417.672 384.16 417.672H384.16C387.416 417.672 390.538 416.263 392.839 413.755C395.141 411.248 396.435 407.847 396.435 404.3V369.078H413.798C415.174 369.078 416.537 368.783 417.808 368.209C419.079 367.635 420.234 366.795 421.207 365.735C422.18 364.675 422.952 363.416 423.479 362.031C424.005 360.647 424.276 359.162 424.276 357.663V357.663C424.276 356.164 424.005 354.68 423.479 353.295C422.952 351.91 422.18 350.652 421.207 349.592C420.234 348.532 419.079 347.691 417.808 347.117C416.537 346.544 415.174 346.249 413.798 346.249V346.249Z" stroke="#343A40" stroke-miterlimit="10"/>
<path d="M739.518 346.249H722.155V290.547C722.155 287.588 721.076 284.751 719.155 282.659C717.235 280.567 714.63 279.391 711.915 279.391H707.846C706.501 279.391 705.17 279.68 703.927 280.24C702.685 280.801 701.556 281.623 700.605 282.659C699.654 283.694 698.9 284.924 698.385 286.278C697.871 287.631 697.606 289.082 697.606 290.547V346.249H648.629C647.621 346.249 646.631 345.965 645.753 345.425C644.876 344.885 644.142 344.107 643.622 343.167C643.102 342.227 642.814 341.157 642.785 340.059C642.757 338.962 642.989 337.876 643.46 336.905L695.297 230.025C695.943 228.693 696.335 227.231 696.448 225.729C696.562 224.227 696.395 222.716 695.957 221.286C695.52 219.856 694.821 218.538 693.903 217.411C692.985 216.283 691.866 215.37 690.615 214.727L687.555 213.152C685.179 211.93 682.463 211.75 679.968 212.648C677.473 213.547 675.391 215.456 674.152 217.981L610.93 346.82C609.854 349.014 609.29 351.464 609.29 353.951C609.29 357.963 610.753 361.811 613.357 364.647C615.961 367.484 619.493 369.078 623.176 369.078H697.606V404.3C697.606 407.847 698.899 411.248 701.201 413.755C703.503 416.263 706.625 417.672 709.88 417.672V417.672C713.136 417.672 716.258 416.263 718.56 413.755C720.861 411.248 722.155 407.847 722.155 404.3V369.078H739.518C740.894 369.078 742.257 368.783 743.528 368.209C744.799 367.635 745.955 366.795 746.928 365.735C747.901 364.675 748.672 363.416 749.199 362.031C749.726 360.647 749.997 359.162 749.997 357.663V357.663C749.997 354.636 748.893 351.733 746.928 349.592C744.963 347.451 742.297 346.249 739.518 346.249V346.249Z" stroke="#343A40" stroke-miterlimit="10"/>
<path d="M515.885 205.033C473.889 205.033 443.736 234.385 443.736 302.873C443.736 380.493 473.889 401.039 515.885 401.039C557.882 401.039 589.831 378.536 589.831 302.873C589.831 221.992 557.882 205.033 515.885 205.033ZM516.161 375.274C487.074 375.274 471.877 356.684 471.877 302.923C471.877 255.487 487.696 230.471 516.783 230.471C545.871 230.471 561.69 246.903 561.69 302.923C561.69 355.329 545.249 375.274 516.161 375.274V375.274Z" stroke="#343A40" stroke-miterlimit="10"/>
<path d="M744.002 345.336C745.483 345.922 747.068 346.126 748.632 345.931C750.197 345.736 751.699 345.148 753.02 344.213C754.34 343.278 755.443 342.021 756.242 340.543C757.041 339.064 757.514 337.403 757.623 335.691C757.732 333.98 757.474 332.264 756.871 330.679C756.267 329.094 755.334 327.684 754.145 326.559C752.956 325.434 751.543 324.625 750.018 324.196C748.493 323.768 746.897 323.731 745.357 324.088L745.611 329.791L743.135 324.904C740.704 326.148 738.826 328.392 737.914 331.144C737.59 332.108 737.393 333.117 737.329 334.141C737.173 336.544 737.74 338.936 738.944 340.957C740.148 342.977 741.924 344.514 744.002 345.336V345.336Z" fill="#57B894"/>
<path d="M756.256 411.474C755.382 406.624 759.17 402.325 762.912 399.53C766.654 396.736 771.026 393.99 772.303 389.248C774.138 382.432 768.672 376.19 764.418 370.807C761.262 366.812 758.552 362.424 756.344 357.735C755.459 355.854 754.646 353.888 754.413 351.79C754.077 348.769 754.968 345.763 755.866 342.881C758.856 333.281 762.054 323.761 765.458 314.322" stroke="#3F3D56" stroke-miterlimit="10"/>
<path d="M744.421 343.868C745.902 344.454 747.487 344.658 749.051 344.463C750.616 344.268 752.118 343.68 753.439 342.745C754.759 341.81 755.862 340.553 756.661 339.074C757.46 337.596 757.933 335.935 758.042 334.223C758.151 332.512 757.893 330.796 757.29 329.211C756.686 327.626 755.753 326.215 754.564 325.09C753.375 323.965 751.962 323.157 750.437 322.728C748.912 322.299 747.316 322.263 745.776 322.62L746.03 328.323L743.554 323.436C741.123 324.68 739.245 326.924 738.333 329.676C738.009 330.64 737.812 331.649 737.748 332.673C737.592 335.076 738.159 337.468 739.363 339.488C740.567 341.509 742.343 343.046 744.421 343.868V343.868Z" stroke="#3F3D56" stroke-miterlimit="10"/>
<path d="M755.013 312.353C755.594 310.607 756.569 309.048 757.849 307.82C759.128 306.592 760.67 305.735 762.333 305.327L763.171 310.748L764.723 305.055C766.879 305.09 768.968 305.87 770.69 307.283C772.412 308.695 773.677 310.668 774.303 312.915C774.929 315.162 774.883 317.568 774.172 319.785C773.461 322.002 772.122 323.916 770.347 325.249C768.573 326.583 766.455 327.268 764.3 327.205C762.145 327.142 760.064 326.335 758.358 324.9C756.652 323.464 755.408 321.476 754.807 319.22C754.206 316.965 754.278 314.56 755.013 312.353H755.013Z" fill="#57B894"/>
<path d="M755.572 310.395C756.153 308.649 757.128 307.09 758.407 305.863C759.686 304.635 761.229 303.778 762.892 303.37L763.729 308.791L765.282 303.097C767.437 303.132 769.527 303.912 771.249 305.325C772.971 306.738 774.236 308.71 774.862 310.958C775.488 313.205 775.442 315.611 774.731 317.828C774.02 320.045 772.68 321.958 770.906 323.292C769.131 324.625 767.014 325.31 764.859 325.247C762.704 325.185 760.623 324.377 758.917 322.942C757.21 321.507 755.967 319.518 755.366 317.263C754.764 315.008 754.837 312.603 755.572 310.395H755.572Z" stroke="#3F3D56" stroke-miterlimit="10"/>
<path d="M762.633 370.917C764.981 371.845 767.56 371.799 769.878 370.788C772.197 369.778 774.093 367.873 775.205 365.437C776.317 363.002 776.568 360.205 775.909 357.581C775.251 354.957 773.729 352.689 771.634 351.209L770.441 355.584L769.595 350.099C769.586 350.095 769.578 350.091 769.569 350.088C768.313 349.591 766.98 349.369 765.645 349.433C764.311 349.497 763.001 349.848 761.79 350.464C760.58 351.08 759.493 351.95 758.591 353.024C757.69 354.097 756.991 355.354 756.536 356.723C756.08 358.091 755.876 359.543 755.936 360.997C755.996 362.451 756.318 363.878 756.885 365.196C757.451 366.514 758.25 367.698 759.236 368.68C760.223 369.661 761.377 370.421 762.633 370.917H762.633Z" fill="#57B894"/>
<path d="M763.117 368.934C765.465 369.862 768.043 369.816 770.362 368.805C772.68 367.795 774.577 365.89 775.689 363.455C776.801 361.019 777.052 358.223 776.393 355.599C775.735 352.975 774.213 350.706 772.117 349.226L770.925 353.601L770.079 348.116C770.07 348.112 770.062 348.109 770.053 348.106C768.797 347.609 767.464 347.386 766.129 347.45C764.795 347.515 763.485 347.865 762.274 348.481C761.064 349.097 759.977 349.967 759.075 351.041C758.174 352.115 757.475 353.372 757.019 354.74C756.564 356.108 756.36 357.56 756.42 359.014C756.48 360.468 756.802 361.895 757.369 363.213C757.935 364.531 758.734 365.715 759.72 366.697C760.707 367.678 761.861 368.439 763.117 368.934H763.117Z" stroke="#3F3D56" stroke-miterlimit="10"/>
<path d="M752.046 389.315C752.449 391.817 753.63 394.092 755.391 395.758C757.151 397.424 759.384 398.38 761.715 398.466C764.045 398.551 766.332 397.761 768.191 396.228C770.051 394.695 771.37 392.512 771.927 390.045C772.484 387.578 772.246 384.978 771.252 382.679C770.258 380.381 768.569 378.525 766.468 377.423C764.367 376.32 761.982 376.038 759.713 376.624C757.444 377.21 755.429 378.628 754.005 380.64L758.536 388.069L752.345 384.126C751.865 385.805 751.762 387.584 752.046 389.315V389.315Z" fill="#57B894"/>
<path d="M752.464 387.847C752.868 390.349 754.049 392.624 755.81 394.29C757.57 395.956 759.803 396.912 762.133 396.997C764.464 397.083 766.751 396.293 768.61 394.76C770.469 393.226 771.788 391.043 772.346 388.577C772.903 386.11 772.664 383.509 771.671 381.211C770.677 378.913 768.988 377.057 766.887 375.955C764.786 374.852 762.401 374.57 760.132 375.156C757.863 375.742 755.848 377.16 754.424 379.172L758.955 386.601L752.764 382.658C752.284 384.337 752.181 386.116 752.464 387.847V387.847Z" stroke="#3F3D56" stroke-miterlimit="10"/>
<path d="M256.401 372.325C257.374 372.71 258.415 372.844 259.444 372.715C260.472 372.587 261.458 372.201 262.326 371.587C263.194 370.972 263.919 370.147 264.443 369.175C264.968 368.203 265.279 367.112 265.35 365.988C265.422 364.863 265.253 363.736 264.856 362.694C264.46 361.653 263.847 360.726 263.065 359.987C262.284 359.248 261.356 358.717 260.354 358.435C259.352 358.154 258.303 358.129 257.291 358.364L257.459 362.111L255.831 358.9C254.234 359.717 253.001 361.192 252.401 363C252.189 363.633 252.059 364.296 252.017 364.969C251.914 366.548 252.287 368.12 253.078 369.447C253.869 370.774 255.036 371.785 256.401 372.325V372.325Z" fill="#57B894"/>
<path d="M264.453 415.778C263.878 412.592 266.367 409.767 268.826 407.931C271.284 406.095 274.157 404.291 274.995 401.175C276.201 396.697 272.61 392.596 269.815 389.059C267.742 386.435 265.961 383.552 264.51 380.47C263.88 379.26 263.45 377.938 263.241 376.565C263.021 374.58 263.606 372.605 264.196 370.711C266.161 364.404 268.261 358.149 270.498 351.948" stroke="#3F3D56" stroke-miterlimit="10"/>
<path d="M256.677 371.36C257.649 371.745 258.691 371.879 259.719 371.751C260.747 371.623 261.734 371.236 262.601 370.622C263.469 370.008 264.194 369.182 264.718 368.21C265.243 367.239 265.554 366.148 265.625 365.023C265.697 363.899 265.528 362.771 265.132 361.73C264.735 360.689 264.122 359.762 263.341 359.023C262.559 358.284 261.631 357.752 260.629 357.471C259.627 357.189 258.579 357.165 257.566 357.4L257.734 361.146L256.107 357.935C254.51 358.753 253.276 360.228 252.677 362.035C252.464 362.669 252.334 363.332 252.292 364.004C252.19 365.583 252.562 367.155 253.353 368.482C254.144 369.81 255.311 370.82 256.677 371.36V371.36Z" stroke="#3F3D56" stroke-miterlimit="10"/>
<path d="M263.636 350.654C264.018 349.507 264.658 348.482 265.499 347.676C266.339 346.869 267.352 346.306 268.445 346.038L268.995 349.6L270.015 345.859C271.432 345.882 272.804 346.394 273.936 347.323C275.067 348.251 275.898 349.547 276.31 351.023C276.721 352.5 276.691 354.08 276.223 355.537C275.756 356.994 274.876 358.251 273.71 359.127C272.545 360.003 271.153 360.453 269.738 360.412C268.322 360.371 266.955 359.84 265.833 358.897C264.712 357.954 263.895 356.648 263.5 355.166C263.105 353.684 263.153 352.104 263.636 350.654V350.654Z" fill="#57B894"/>
<path d="M264.003 349.368C264.385 348.22 265.025 347.196 265.866 346.39C266.706 345.583 267.719 345.02 268.812 344.752L269.362 348.314L270.382 344.573C271.799 344.596 273.171 345.108 274.303 346.037C275.434 346.965 276.265 348.261 276.677 349.737C277.088 351.214 277.058 352.794 276.59 354.251C276.123 355.708 275.243 356.965 274.077 357.841C272.912 358.717 271.52 359.167 270.104 359.126C268.689 359.084 267.321 358.554 266.2 357.611C265.079 356.668 264.262 355.362 263.867 353.88C263.472 352.398 263.52 350.818 264.003 349.368V349.368Z" stroke="#3F3D56" stroke-miterlimit="10"/>
<path d="M268.642 389.132C270.185 389.741 271.879 389.711 273.402 389.047C274.926 388.383 276.171 387.132 276.902 385.531C277.633 383.931 277.798 382.094 277.365 380.37C276.932 378.646 275.932 377.155 274.556 376.183L273.772 379.058L273.216 375.454C273.211 375.451 273.205 375.449 273.199 375.447C272.374 375.12 271.498 374.974 270.621 375.016C269.744 375.058 268.883 375.288 268.088 375.693C267.293 376.097 266.578 376.669 265.986 377.375C265.393 378.08 264.934 378.906 264.635 379.805C264.336 380.704 264.202 381.659 264.241 382.614C264.281 383.569 264.492 384.507 264.864 385.373C265.237 386.239 265.762 387.017 266.41 387.662C267.058 388.307 267.817 388.806 268.642 389.132V389.132Z" fill="#57B894"/>
<path d="M268.96 387.829C270.502 388.438 272.197 388.408 273.72 387.744C275.243 387.08 276.489 385.829 277.22 384.229C277.951 382.628 278.116 380.791 277.683 379.067C277.25 377.343 276.25 375.853 274.874 374.88L274.09 377.755L273.534 374.151C273.529 374.148 273.523 374.146 273.517 374.144C272.692 373.818 271.817 373.672 270.94 373.715C270.063 373.758 269.203 373.988 268.408 374.393C266.803 375.211 265.562 376.69 264.958 378.504C264.353 380.319 264.436 382.321 265.186 384.07C265.937 385.818 267.294 387.17 268.96 387.829V387.829Z" stroke="#3F3D56" stroke-miterlimit="10"/>
<path d="M261.686 401.22C261.951 402.864 262.727 404.358 263.884 405.453C265.041 406.547 266.507 407.175 268.039 407.231C269.57 407.288 271.072 406.769 272.294 405.761C273.516 404.754 274.382 403.32 274.748 401.699C275.114 400.078 274.958 398.37 274.305 396.86C273.652 395.35 272.542 394.13 271.162 393.406C269.782 392.682 268.215 392.496 266.724 392.881C265.233 393.266 263.909 394.198 262.974 395.52L265.951 400.401L261.883 397.81C261.568 398.913 261.5 400.082 261.686 401.22V401.22Z" fill="#57B894"/>
<path d="M261.961 400.255C262.226 401.899 263.002 403.393 264.159 404.488C265.316 405.583 266.783 406.211 268.314 406.267C269.845 406.323 271.348 405.804 272.569 404.797C273.791 403.789 274.657 402.355 275.023 400.734C275.39 399.114 275.233 397.405 274.58 395.895C273.927 394.385 272.817 393.166 271.437 392.441C270.057 391.717 268.49 391.532 266.999 391.917C265.508 392.301 264.184 393.233 263.249 394.555L266.226 399.436L262.158 396.846C261.843 397.948 261.775 399.118 261.961 400.255V400.255Z" stroke="#3F3D56" stroke-miterlimit="10"/>
<path d="M488.968 288.679C490.318 288.679 491.411 287.487 491.411 286.017C491.411 284.547 490.318 283.356 488.968 283.356C487.619 283.356 486.525 284.547 486.525 286.017C486.525 287.487 487.619 288.679 488.968 288.679Z" fill="white"/>
<path d="M534.412 288.679C535.762 288.679 536.856 287.487 536.856 286.017C536.856 284.547 535.762 283.356 534.412 283.356C533.063 283.356 531.969 284.547 531.969 286.017C531.969 287.487 533.063 288.679 534.412 288.679Z" fill="white"/>
</g>
<defs>
<clipPath id="clip0">
<rect width="525" height="311" fill="white" transform="translate(252 122)"/>
</clipPath>
</defs>
</svg>
