<svg width="849" height="470" viewBox="0 0 849 470" fill="none" xmlns="http://www.w3.org/2000/svg">
<g clip-path="url(#clip0)">
<path d="M348.703 467.04C335.286 469.016 321.708 469.673 308.163 469C275.503 467.35 243.383 457.85 215.933 439.99C203.763 432.07 192.153 422.34 185.853 409.27C177.303 391.52 180.293 369.05 192.503 353.59C196.957 348.014 202.435 343.34 208.643 339.82C209.563 339.3 210.503 338.8 211.453 338.32C221.798 333.118 233.417 330.991 244.933 332.19C264.513 334.33 282.583 346.29 293.023 363C302.323 377.9 305.563 395.48 307.473 413.1C307.833 416.42 308.143 419.75 308.443 423.06C306.779 432.65 304.163 442.05 300.633 451.12C300.453 451.562 300.306 452.017 300.193 452.48C302.193 456.82 304.096 461.2 305.903 465.62C307.601 466.541 309.502 467.023 311.433 467.02H348.623L348.703 467.04Z" fill="#17A2B8"/>
<path d="M305.133 467.89C304.886 468 304.62 468.06 304.35 468.066C304.081 468.072 303.812 468.025 303.561 467.926C303.31 467.827 303.08 467.68 302.887 467.491C302.693 467.303 302.539 467.078 302.433 466.83C302.273 466.45 302.123 466.07 301.963 465.69C300.523 462.19 299.013 458.723 297.433 455.29C277.205 410.984 247.033 371.94 209.263 341.19C209.046 341.038 208.875 340.831 208.766 340.59C208.657 340.349 208.614 340.083 208.643 339.82C208.698 339.519 208.82 339.234 209.001 338.986C209.181 338.739 209.415 338.535 209.686 338.391C209.956 338.247 210.255 338.165 210.561 338.153C210.867 338.141 211.172 338.198 211.453 338.32C211.604 338.388 211.745 338.476 211.873 338.58C228.033 351.742 242.858 366.463 256.133 382.53C269.411 398.582 281.102 415.883 291.043 434.19C293.753 439.19 296.326 444.26 298.763 449.4C299.243 450.42 299.723 451.45 300.193 452.48C302.193 456.82 304.096 461.2 305.903 465.62C305.933 465.69 305.963 465.77 305.993 465.84C306.085 466.029 306.136 466.236 306.142 466.446C306.148 466.657 306.108 466.866 306.027 467.06C305.946 467.254 305.824 467.428 305.67 467.571C305.515 467.715 305.332 467.823 305.133 467.89Z" fill="white"/>
<path d="M760.058 469H88.9415C88.6915 468.999 88.4521 468.894 88.2756 468.706C88.0991 468.519 88 468.265 88 468C88 467.735 88.0991 467.481 88.2756 467.294C88.4521 467.107 88.6915 467.001 88.9415 467H760.058C760.308 467.001 760.548 467.107 760.724 467.294C760.901 467.481 761 467.735 761 468C761 468.265 760.901 468.519 760.724 468.706C760.548 468.894 760.308 468.999 760.058 469V469Z" fill="#343A40"/>
<path d="M503.503 205C510.683 205 516.503 199.18 516.503 192C516.503 184.82 510.683 179 503.503 179C496.323 179 490.503 184.82 490.503 192C490.503 199.18 496.323 205 503.503 205Z" fill="#17A2B8"/>
<path d="M503.503 243C510.683 243 516.503 237.18 516.503 230C516.503 222.82 510.683 217 503.503 217C496.323 217 490.503 222.82 490.503 230C490.503 237.18 496.323 243 503.503 243Z" fill="#17A2B8"/>
<path d="M510.503 287C517.683 287 523.503 281.18 523.503 274C523.503 266.82 517.683 261 510.503 261C503.323 261 497.503 266.82 497.503 274C497.503 281.18 503.323 287 510.503 287Z" fill="#17A2B8"/>
<path d="M635.859 382.539C635.724 382.539 635.639 382.536 635.61 382.534L619.47 382.536V380.156H635.668C636.043 380.17 643.695 380.386 650.745 371.831C661.251 359.082 669.878 327.522 651.317 249.567C626.36 144.747 647.176 52.1437 657.283 17.1953C657.781 15.4663 657.87 13.6451 657.544 11.8757C657.217 10.1063 656.483 8.43721 655.4 7.00021C654.317 5.5632 652.915 4.3977 651.304 3.5958C649.693 2.7939 647.918 2.37759 646.119 2.37972H405.085C403.252 2.38218 401.446 2.81667 399.813 3.64796C398.18 4.47924 396.766 5.68388 395.685 7.1641C391.403 13.0541 385.527 24.3693 381.85 44.8291L379.508 44.4085C383.265 23.5042 389.332 11.8561 393.76 5.76508C395.062 3.98149 396.765 2.52993 398.733 1.52824C400.701 0.526545 402.877 0.00296261 405.085 6.47662e-06H646.119C648.287 -0.00208019 650.426 0.500081 652.367 1.46682C654.308 2.43356 655.997 3.83838 657.302 5.5703C658.607 7.30223 659.491 9.31379 659.884 11.4461C660.278 13.5784 660.17 15.773 659.569 17.8565C649.514 52.6235 628.806 144.746 653.633 249.017C672.454 328.067 663.406 360.312 652.502 373.441C645.309 382.101 637.384 382.539 635.859 382.539Z" fill="#CBCBCB"/>
<path d="M592.43 425.969C592.295 425.969 592.21 425.965 592.18 425.964L576.041 425.965V423.586H592.239C592.616 423.597 600.265 423.815 607.315 415.261C617.821 402.512 626.449 370.951 607.888 292.997C582.931 188.176 603.746 95.5731 613.854 60.6248C614.352 58.8958 614.441 57.0746 614.114 55.3052C613.787 53.5358 613.053 51.8667 611.97 50.4297C610.888 48.9927 609.485 47.8272 607.875 47.0253C606.264 46.2234 604.489 45.8071 602.689 45.8092H361.655C359.823 45.8117 358.017 46.2462 356.383 47.0774C354.75 47.9087 353.336 49.1134 352.256 50.5936C347.974 56.4836 342.098 67.7988 338.421 88.2586L336.079 87.838C339.836 66.9337 345.903 55.2856 350.331 49.1946C351.632 47.411 353.336 45.9594 355.304 44.9577C357.271 43.956 359.447 43.4325 361.655 43.4295H602.689C604.858 43.4274 606.997 43.9296 608.938 44.8963C610.878 45.8631 612.568 47.2679 613.873 48.9998C615.177 50.7317 616.061 52.7433 616.455 54.8756C616.848 57.0079 616.74 59.2025 616.14 61.286C606.084 96.053 585.377 188.176 610.203 292.446C629.025 371.497 619.976 403.741 609.072 416.871C601.879 425.53 593.955 425.969 592.43 425.969Z" fill="#A8A8A8"/>
<path d="M566.773 335.88C541.943 231.61 562.653 139.48 572.713 104.72C573.312 102.636 573.419 100.442 573.025 98.3103C572.63 96.1785 571.746 94.1673 570.442 92.4355C569.138 90.7037 567.449 89.2986 565.509 88.331C563.569 87.3634 561.431 86.8599 559.263 86.86H318.223C316.016 86.8622 313.841 87.3849 311.874 88.3858C309.907 89.3866 308.204 90.8373 306.903 92.62C297.173 106 276.983 150.37 299.533 273.14C311.593 338.82 311.413 383.6 307.473 413.1C305.263 429.71 301.853 441.47 298.763 449.4L298.433 450.24C297.782 451.845 297.443 453.559 297.433 455.29C297.41 457.245 297.802 459.183 298.583 460.976C299.364 462.768 300.516 464.375 301.963 465.69C302.906 466.574 303.974 467.315 305.133 467.89C306.095 468.381 307.112 468.753 308.163 469C309.233 469.261 310.331 469.392 311.433 469.39H548.753C548.783 469.39 548.863 469.4 549.003 469.4C550.523 469.4 558.453 468.96 565.643 460.3C576.543 447.17 585.593 414.93 566.773 335.88ZM563.883 458.69C556.833 467.25 549.183 467.03 548.813 467.02H311.433C309.533 467.02 307.661 466.553 305.982 465.663C304.304 464.772 302.869 463.483 301.803 461.91C300.865 460.55 300.236 459.001 299.957 457.373C299.679 455.744 299.76 454.074 300.193 452.48C300.306 452.017 300.453 451.562 300.633 451.12C304.163 442.05 306.779 432.65 308.443 423.06C314.083 392.31 315.133 344.86 301.873 272.71C279.493 150.85 299.283 107.15 308.823 94.02C309.905 92.542 311.32 91.3392 312.953 90.5088C314.586 89.6785 316.391 89.2439 318.223 89.24H559.263C561.061 89.2388 562.835 89.6555 564.445 90.4574C566.054 91.2592 567.456 92.4242 568.538 93.8605C569.62 95.2967 570.354 96.9648 570.681 98.7332C571.008 100.502 570.92 102.322 570.423 104.05C560.313 139 539.503 231.61 564.463 336.43C583.023 414.38 574.393 445.94 563.883 458.69Z" fill="#343A40"/>
<path d="M452.263 200.4H328.076C325.552 200.4 323.131 199.398 321.346 197.612C319.561 195.827 318.558 193.406 318.558 190.882C318.558 188.357 319.561 185.936 321.346 184.151C323.131 182.366 325.552 181.363 328.076 181.363H452.263C454.787 181.363 457.208 182.366 458.993 184.151C460.778 185.936 461.781 188.357 461.781 190.882C461.781 193.406 460.778 195.827 458.993 197.612C457.208 199.398 454.787 200.4 452.263 200.4V200.4Z" fill="#E8E7E7"/>
<path d="M452.263 241.4H328.076C325.552 241.4 323.131 240.398 321.346 238.612C319.561 236.827 318.558 234.406 318.558 231.882C318.558 229.357 319.561 226.936 321.346 225.151C323.131 223.366 325.552 222.363 328.076 222.363H452.263C454.787 222.363 457.208 223.366 458.993 225.151C460.778 226.936 461.781 229.357 461.781 231.882C461.781 234.406 460.778 236.827 458.993 238.612C457.208 240.398 454.787 241.4 452.263 241.4V241.4Z" fill="#E8E7E7"/>
<path d="M462.263 283.4H338.076C335.552 283.4 333.131 282.398 331.346 280.612C329.561 278.827 328.558 276.406 328.558 273.882C328.558 271.357 329.561 268.936 331.346 267.151C333.131 265.366 335.552 264.363 338.076 264.363H462.263C464.787 264.363 467.208 265.366 468.993 267.151C470.778 268.936 471.781 271.357 471.781 273.882C471.781 276.406 470.778 278.827 468.993 280.612C467.208 282.398 464.787 283.4 462.263 283.4V283.4Z" fill="#E8E7E7"/>
<path d="M469.263 327.4H345.076C342.552 327.4 340.131 326.397 338.346 324.612C336.561 322.827 335.558 320.406 335.558 317.882C335.558 315.357 336.561 312.936 338.346 311.151C340.131 309.366 342.552 308.363 345.076 308.363H469.263C471.787 308.363 474.208 309.366 475.993 311.151C477.778 312.936 478.781 315.357 478.781 317.882C478.781 320.406 477.778 322.827 475.993 324.612C474.208 326.397 471.787 327.4 469.263 327.4Z" fill="#E8E7E7"/>
<path d="M469.315 126.491H380.076C378.826 126.492 377.587 126.247 376.431 125.769C375.275 125.291 374.224 124.59 373.339 123.706C372.454 122.822 371.752 121.772 371.273 120.617C370.794 119.461 370.548 118.223 370.548 116.972C370.548 115.721 370.794 114.482 371.273 113.327C371.752 112.171 372.454 111.122 373.339 110.238C374.224 109.354 375.275 108.653 376.431 108.175C377.587 107.697 378.826 107.452 380.076 107.453H469.315C471.84 107.453 474.261 108.456 476.046 110.241C477.831 112.026 478.834 114.447 478.834 116.972C478.834 119.496 477.831 121.917 476.046 123.703C474.261 125.488 471.84 126.491 469.315 126.491Z" fill="#17A2B8"/>
<path d="M518.503 330.882C525.683 330.882 531.503 325.061 531.503 317.882C531.503 310.702 525.683 304.882 518.503 304.882C511.323 304.882 505.503 310.702 505.503 317.882C505.503 325.061 511.323 330.882 518.503 330.882Z" fill="#17A2B8"/>
<path d="M475.263 370.4H351.076C348.552 370.4 346.131 369.397 344.346 367.612C342.561 365.827 341.558 363.406 341.558 360.882C341.558 358.357 342.561 355.936 344.346 354.151C346.131 352.366 348.552 351.363 351.076 351.363H475.263C477.787 351.363 480.208 352.366 481.993 354.151C483.778 355.936 484.781 358.357 484.781 360.882C484.781 363.406 483.778 365.827 481.993 367.612C480.208 369.397 477.787 370.4 475.263 370.4Z" fill="#E8E7E7"/>
<path d="M524.503 373.882C531.683 373.882 537.503 368.061 537.503 360.882C537.503 353.702 531.683 347.882 524.503 347.882C517.323 347.882 511.503 353.702 511.503 360.882C511.503 368.061 517.323 373.882 524.503 373.882Z" fill="#17A2B8"/>
</g>
<defs>
<clipPath id="clip0">
<rect width="848.675" height="469.443" fill="white"/>
</clipPath>
</defs>
</svg>
