<svg width="903" height="749" viewBox="0 0 903 749" fill="none" xmlns="http://www.w3.org/2000/svg">
<g clip-path="url(#clip0)">
<path d="M285.763 147.357H284.8C283.535 147.357 282.51 148.382 282.51 149.647V171.88C282.51 173.145 283.535 174.17 284.8 174.17H285.763C287.028 174.17 288.053 173.145 288.053 171.88V149.647C288.053 148.382 287.028 147.357 285.763 147.357Z" fill="#3F3D56"/>
<path d="M286.265 196.454H284.599C283.334 196.454 282.309 197.479 282.309 198.744V240.83C282.309 242.095 283.334 243.12 284.599 243.12H286.265C287.53 243.12 288.555 242.095 288.555 240.83V198.744C288.555 197.479 287.53 196.454 286.265 196.454Z" fill="#3F3D56"/>
<path d="M286.064 259.449H284.699C283.434 259.449 282.409 260.474 282.409 261.739V304.226C282.409 305.491 283.434 306.516 284.699 306.516H286.064C287.329 306.516 288.354 305.491 288.354 304.226V261.739C288.354 260.474 287.329 259.449 286.064 259.449Z" fill="#3F3D56"/>
<path d="M208.741 383.91C208.9 384.063 209.104 384.161 209.323 384.19C209.542 384.218 209.764 384.174 209.957 384.066C209.546 384.072 209.137 384.02 208.741 383.91Z" fill="url(#paint0_linear)"/>
<path d="M254.704 401.889L253.504 408.425L252.578 413.425L250.894 422.571L234.565 434.003C234.565 434.003 233.093 432.743 230.665 430.757C223.973 425.247 209.908 414.027 199.58 408.004C196.923 406.311 194.049 404.986 191.036 404.067L254.704 401.889Z" fill="#FEB9B9"/>
<path d="M242.725 406.752C242.725 406.752 261.764 410.02 262.879 401.889C263.994 393.758 253.079 389.364 243.829 388.817C234.579 388.27 179.061 392.085 179.061 392.085C179.061 392.085 169.268 405.146 204.636 407.332L242.725 406.752Z" fill="#3F3D56"/>
<path d="M284.361 138.445H184.761V256.549H284.361V138.445Z" fill="#2F2E41"/>
<path opacity="0.1" d="M284.361 138.981H184.761V257.085H284.361V138.981Z" fill="black"/>
<path d="M68.03 340.623C66.39 341.036 64.294 342.623 61.963 344.917C51.925 354.855 37.548 378.177 37.548 378.177C19.167 356.282 39.507 338.983 48.177 333.038C50.285 331.599 51.701 330.807 51.701 330.807L68.03 340.623Z" fill="#FEB9B9"/>
<path d="M253.611 175.72C253.611 175.72 258.511 210.006 275.382 218.17C292.253 226.334 253.611 241.592 253.611 241.592L200.822 221.984C200.822 221.984 230.758 212.184 224.768 183.337L253.611 175.72Z" fill="#FEB9B9"/>
<path d="M197.008 381.991L195.814 388.505L194.844 393.524L193.16 402.67L176.831 414.091C176.831 414.091 175.359 412.842 172.931 410.857C166.239 405.347 152.175 394.127 141.831 388.104C139.176 386.409 136.301 385.084 133.287 384.167L197.008 381.991Z" fill="#FEB9B9"/>
<path d="M182.883 390.024C182.883 390.024 199.97 390.145 200.998 381.991C202.026 373.837 191.686 369.466 182.883 368.919C174.08 368.372 120.594 372.441 120.594 372.441C120.594 372.441 113.006 387.841 146.649 390.023L182.883 390.024Z" fill="#2F2E41"/>
<path d="M302.686 518.119C301.939 517.751 301.191 517.372 300.455 517.004L298.447 514.472L272.114 481.079V481.659C271.936 487.236 270.04 531.426 255.25 535.508C239.468 539.858 220.429 540.951 211.75 511.562C203.071 482.173 187.213 417.951 170.928 414.137L195.153 394.273C195.153 394.273 211.192 413.033 217.727 430.99C217.482 429.875 206.406 378.123 215.496 368.966H294.971C294.971 368.966 307.24 403.91 315.649 421.22C322.196 434.66 332.022 466.436 338.349 487.94C344.612 509.174 322.606 527.923 302.686 518.119Z" fill="#3F3D56"/>
<path opacity="0.1" d="M300.422 378.723C288.153 385.984 234.293 383.028 216.771 381.846L211.997 381.5C211.484 381.5 212.075 381.21 212.075 381.21L212.566 376.269L225.627 343.076L295.559 302.522C294.142 306.794 293.674 313.33 293.786 320.814C294.109 344.861 300.422 378.723 300.422 378.723Z" fill="black"/>
<path d="M300.422 377.084C288.153 384.345 234.293 381.389 216.771 380.207L211.997 379.872L211.205 379.805L212.075 379.582L216.38 378.467L225.626 341.46L295.558 300.917C294.142 305.189 293.673 311.725 293.785 319.209C294.109 343.233 300.422 377.084 300.422 377.084Z" fill="#EFEFEF"/>
<path opacity="0.1" d="M293.741 319.186C279.52 322.465 248.224 332.086 236.2 355.323C228.181 370.793 221.433 377.429 216.726 380.206L211.952 379.871C211.983 379.776 212.009 379.679 212.03 379.581L216.335 378.466L225.581 341.459L295.513 300.917C294.113 305.166 293.629 311.702 293.741 319.186Z" fill="black"/>
<path opacity="0.1" d="M51.701 330.831L68.03 340.624C66.39 341.037 64.294 342.624 61.963 344.918C60.602 340.947 52.063 335.404 48.177 333.04C50.284 331.623 51.701 330.831 51.701 330.831Z" fill="black"/>
<path opacity="0.1" d="M209.042 380.508C208.863 380.601 208.659 380.636 208.46 380.608C208.26 380.58 208.074 380.491 207.927 380.352C208.289 380.458 208.665 380.511 209.042 380.508V380.508Z" fill="black"/>
<path d="M245.994 215.995C245.994 215.995 231.294 217.623 220.955 206.738C220.955 206.738 177.455 219.263 162.723 247.559C147.991 275.855 47.842 331.377 47.842 331.377C47.842 331.377 65.264 341.17 63.624 346.066L129.485 307.966C129.485 307.966 152.907 291.102 159.41 287.288C165.913 283.474 201.871 260.074 209.489 323.749C217.107 387.424 209.489 379.806 209.489 379.806C209.489 379.806 220.375 383.621 236.157 353.138C251.939 322.655 300.914 315.584 300.914 315.584L303.635 283.484C303.635 283.484 313.35 262.203 305.866 253.37C303.599 250.755 302.091 247.569 301.505 244.157C300.267 236.004 301.505 222.419 318.837 211.132C345.505 193.71 355.844 179.568 355.844 179.568C355.844 179.568 356.39 169.218 340.062 164.321C323.734 159.424 257.337 132.757 257.337 132.757L255.106 142.014L307.494 178.988C307.494 178.988 281.373 200.179 260.65 199.666C260.649 199.666 264.497 215.448 245.994 215.995Z" fill="#17A2B8"/>
<path opacity="0.1" d="M256.076 190.643C254.789 186.28 253.783 181.84 253.065 177.348L224.222 184.968C225.494 190.474 225.266 196.22 223.564 201.609C229.461 203.183 235.691 202.981 241.474 201.031C247.258 199.08 252.337 195.467 256.076 190.643V190.643Z" fill="black"/>
<path d="M232.119 201.028C249.25 201.028 263.137 187.141 263.137 170.01C263.137 152.879 249.25 138.992 232.119 138.992C214.988 138.992 201.101 152.879 201.101 170.01C201.101 187.141 214.988 201.028 232.119 201.028Z" fill="#FEB9B9"/>
<path opacity="0.1" d="M265.858 419.812C265.858 419.812 283.815 455.191 278.372 466.065Z" fill="black"/>
<path d="M248.614 98.371C257.224 99.353 265.4 103.044 273.877 105.063C275.996 105.722 278.251 105.806 280.413 105.308C283.703 104.293 286.38 100.847 289.793 100.947C291.893 101.014 293.752 102.442 295.481 103.813C298.253 105.935 300.863 108.261 303.288 110.773C309.132 117.119 312.757 125.663 318.088 132.567C323.419 139.471 331.022 147.567 338.595 144.401C333.443 164.477 317.374 177.036 299.117 178.286C291.834 178.786 284.372 177.271 277.323 179.401C275.567 180.121 273.713 180.572 271.823 180.739C267.763 180.739 264.495 177.014 261.963 173.389C256.029 164.868 251.334 155.198 244.653 147.424C242.422 144.848 239.846 142.405 236.723 141.937C233.6 141.469 230.734 142.963 227.957 144.402C223.373 146.778 218.689 149.231 215.131 153.325C211.573 157.419 209.331 163.463 210.803 168.94C211.595 171.907 213.403 174.584 213.435 177.684C213.502 182.636 209.13 186.25 208.271 191.068C208.077 193.092 208.006 195.126 208.059 197.158C207.68 203.758 203.359 209.158 198.859 213.319C197.097 214.925 195.159 216.665 194.643 219.152C194.297 220.858 194.643 222.652 194.42 224.383C193.762 228.666 189.49 230.841 185.709 231.399C181.291 232.053 176.779 231.518 172.637 229.849C177.924 227.349 181.181 220.235 179.954 213.866C178.27 205.032 169.392 198.686 170.154 189.697C170.571 186.939 171.398 184.259 172.608 181.745C174.543 176.887 175.949 171.836 176.802 166.677C177.471 162.695 177.795 158.468 176.545 154.665C175.43 151.207 173.099 148.453 171.124 145.53C168.448 141.554 166.335 137.226 164.845 132.67C164.305 131.319 164.099 129.857 164.245 128.409C164.692 126.699 165.645 125.163 166.978 124.003C171.83 118.903 177.016 113.608 183.519 112.147C186.622 111.632 189.777 111.512 192.91 111.79C198.359 111.961 203.812 111.73 209.227 111.098C213.688 110.574 221.227 110.641 225.009 107.752C228.533 105.052 230.519 101.662 234.857 99.945C239.25 98.3166 243.973 97.7768 248.62 98.372L248.614 98.371Z" fill="#2F2E41"/>
<path d="M824.962 745.598C849.812 745.598 869.957 742.191 869.957 737.989C869.957 733.787 849.812 730.38 824.962 730.38C800.112 730.38 779.967 733.787 779.967 737.989C779.967 742.191 800.112 745.598 824.962 745.598Z" fill="#17A2B8"/>
<path d="M843.571 725.546C845.622 723.869 847.116 721.61 847.857 719.067C848.416 716.505 847.32 713.467 844.857 712.476C842.104 711.424 839.157 713.338 836.934 715.262C834.711 717.186 832.145 719.391 829.224 718.977C830.728 717.618 831.854 715.892 832.492 713.969C833.13 712.045 833.258 709.988 832.865 708C832.734 707.176 832.382 706.402 831.847 705.762C830.325 704.128 827.547 704.822 825.726 706.12C819.907 710.204 818.285 718.12 818.251 725.22C817.658 722.658 818.161 719.983 818.139 717.387C818.117 714.791 817.412 711.787 815.185 710.416C813.811 709.679 812.267 709.316 810.709 709.364C808.091 709.264 805.181 709.532 803.391 711.445C801.153 713.817 801.757 717.801 803.682 720.397C805.607 722.993 808.55 724.66 811.258 726.462C813.423 727.754 815.268 729.518 816.658 731.621C816.825 731.915 816.959 732.227 817.058 732.55H833.407C837.093 730.684 840.511 728.33 843.568 725.55L843.571 725.546Z" fill="#17A2B8"/>
<path d="M213.212 748.956C229.612 748.956 242.906 746.708 242.906 743.934C242.906 741.16 229.612 738.912 213.212 738.912C196.813 738.912 183.518 741.16 183.518 743.934C183.518 746.708 196.813 748.956 213.212 748.956Z" fill="#EFEFEF"/>
<path d="M225.493 735.722C226.846 734.615 227.832 733.124 228.321 731.446C228.536 730.604 228.457 729.714 228.098 728.922C227.738 728.131 227.118 727.487 226.342 727.096C224.525 726.402 222.583 727.665 221.114 728.935C219.645 730.205 217.953 731.66 216.026 731.387C217.018 730.49 217.76 729.351 218.181 728.081C218.602 726.812 218.686 725.455 218.426 724.143C218.339 723.599 218.107 723.089 217.754 722.666C216.754 721.588 214.918 722.046 213.715 722.902C209.875 725.602 208.804 730.818 208.782 735.508C208.391 733.817 208.723 732.052 208.708 730.339C208.693 728.626 208.228 726.647 206.758 725.739C205.851 725.253 204.832 725.013 203.804 725.045C202.076 724.979 200.156 725.156 198.974 726.419C197.497 727.985 197.896 730.614 199.166 732.327C200.436 734.04 202.378 735.141 204.166 736.327C205.595 737.178 206.814 738.34 207.733 739.727C207.844 739.921 207.933 740.127 207.999 740.34H218.788C221.221 739.108 223.476 737.552 225.493 735.717V735.722Z" fill="#EFEFEF"/>
<path d="M45.2799 748.956C61.6795 748.956 74.9739 746.708 74.9739 743.934C74.9739 741.16 61.6795 738.912 45.2799 738.912C28.8804 738.912 15.5859 741.16 15.5859 743.934C15.5859 746.708 28.8804 748.956 45.2799 748.956Z" fill="#EFEFEF"/>
<path d="M57.561 735.722C58.9141 734.615 59.9001 733.124 60.389 731.446C60.6043 730.604 60.5254 729.714 60.1655 728.922C59.8056 728.131 59.1862 727.487 58.41 727.096C56.593 726.402 54.6509 727.665 53.1819 728.935C51.7129 730.205 50.021 731.66 48.094 731.387C49.0859 730.49 49.8283 729.351 50.2489 728.081C50.6695 726.812 50.7539 725.455 50.4939 724.143C50.4074 723.599 50.1752 723.089 49.8219 722.666C48.8219 721.588 46.9859 722.046 45.7829 722.902C41.9429 725.602 40.872 730.818 40.85 735.508C40.459 733.817 40.7909 732.052 40.7759 730.339C40.7609 728.626 40.296 726.647 38.826 725.739C37.9193 725.253 36.9004 725.013 35.8719 725.045C34.1439 724.979 32.224 725.156 31.042 726.419C29.565 727.985 29.9639 730.614 31.2339 732.327C32.5039 734.04 34.4459 735.141 36.2339 736.327C37.6631 737.178 38.8823 738.34 39.801 739.727C39.9116 739.921 40.0008 740.127 40.0669 740.34H50.8559C53.2887 739.108 55.544 737.552 57.561 735.717V735.722Z" fill="#EFEFEF"/>
<path d="M902.567 746.088H0V747.909H902.567V746.088Z" fill="#2F2E41"/>
<path d="M858.51 50.524C858.51 50.524 764.289 44.839 775.39 110.861C775.39 110.861 773.152 122.532 783.76 127.825C783.76 127.825 783.928 122.935 793.428 124.602C796.81 125.163 800.246 125.328 803.667 125.094C808.281 124.79 812.672 122.996 816.177 119.98V119.98C816.177 119.98 842.664 109.036 852.959 65.753C852.959 65.753 860.579 56.309 860.277 53.88L844.377 60.672C844.377 60.672 849.815 72.142 845.496 81.672C845.496 81.672 844.981 61.082 841.926 61.53C841.311 61.62 833.668 65.502 833.668 65.502C833.668 65.502 843.012 85.476 835.962 100.002C835.962 100.002 838.636 75.384 830.747 66.946L819.557 73.481C819.557 73.481 830.479 94.116 823.071 110.957C823.071 110.957 824.971 85.13 817.196 75.07L807.058 82.981C807.058 82.981 817.319 103.313 811.064 117.281C811.064 117.281 810.247 87.224 804.864 84.953C804.864 84.953 795.99 92.786 794.636 95.986C794.636 95.986 801.663 110.757 797.299 118.545C797.299 118.545 794.625 98.515 792.431 98.403C792.431 98.403 783.591 111.674 782.673 120.783C782.673 120.783 783.054 107.254 790.293 97.15C790.293 97.15 781.744 98.616 776.753 104.15C776.753 104.15 778.129 94.773 792.475 93.945C792.475 93.945 799.782 83.874 801.729 83.27C801.729 83.27 787.473 82.07 778.823 85.911C778.823 85.911 786.432 77.06 804.348 81.088L814.363 72.908C814.363 72.908 795.586 70.345 787.619 73.177C787.619 73.177 796.784 65.344 817.06 71.051L827.96 64.538C827.96 64.538 811.947 61.091 802.413 62.3C802.413 62.3 812.484 56.873 831.16 62.759L838.993 59.259C838.993 59.259 827.266 56.954 823.83 56.585C820.394 56.216 820.216 55.276 820.216 55.276C827.646 54.0373 835.273 54.8858 842.249 57.727C842.249 57.727 858.79 51.565 858.51 50.524Z" fill="#17A2B8"/>
<path d="M729.413 15.571C729.413 15.571 686.891 13.008 691.859 42.841C691.859 42.841 690.859 48.112 695.641 50.506C695.641 50.506 695.719 48.268 700.016 49.04C701.542 49.2969 703.093 49.3721 704.637 49.264C706.724 49.1259 708.709 48.3082 710.288 46.936V46.936C710.288 46.936 722.261 41.99 726.916 22.43C726.916 22.43 730.351 18.167 730.216 17.07L723.032 20.136C723.032 20.136 725.483 25.317 723.558 29.625C723.558 29.625 723.323 20.325 721.947 20.539C721.667 20.539 718.209 22.339 718.209 22.339C718.209 22.339 722.439 31.369 719.25 37.927C719.25 37.927 720.458 26.804 716.889 22.988L711.831 25.988C711.831 25.988 716.766 35.309 713.42 42.919C713.42 42.919 714.282 31.248 710.768 26.705L706.191 30.286C706.191 30.286 710.824 39.473 708.004 45.786C708.004 45.786 707.624 32.201 705.195 31.172C705.195 31.172 701.189 34.708 700.573 36.163C700.573 36.163 703.751 42.877 701.782 46.357C701.782 46.357 700.573 37.304 699.544 37.257C699.544 37.257 695.549 43.257 695.135 47.328C695.335 43.5303 696.523 39.8506 698.582 36.653C696.277 37.0897 694.149 38.1905 692.461 39.82C692.461 39.82 693.088 35.579 699.567 35.21C699.567 35.21 702.924 30.656 703.752 30.376C703.752 30.376 697.307 29.839 693.401 31.576C693.401 31.576 696.836 27.581 704.927 29.394L709.403 25.701C709.403 25.701 700.913 24.571 697.313 25.817C697.313 25.817 701.453 22.281 710.618 24.855L715.542 21.912C715.542 21.912 708.302 20.357 703.994 20.912C703.994 20.912 708.548 18.461 716.986 21.112L720.511 19.534C720.511 19.534 715.211 18.493 713.651 18.325C712.091 18.157 712.017 17.732 712.017 17.732C715.376 17.1732 718.825 17.5607 721.976 18.851C721.976 18.851 729.544 16.037 729.413 15.571Z" fill="#3F3D56"/>
<path d="M73.6719 471.008C73.6719 471.008 31.15 468.445 36.118 498.278C36.118 498.278 35.1179 503.549 39.8999 505.943C39.8999 505.943 39.9779 503.705 44.2749 504.477C45.801 504.734 47.3521 504.809 48.8959 504.701C50.9833 504.563 52.968 503.745 54.5469 502.373V502.373C54.5469 502.373 66.52 497.427 71.175 477.867C71.175 477.867 74.61 473.604 74.475 472.507L67.2909 475.573C67.2909 475.573 69.7419 480.754 67.8169 485.062C67.8169 485.062 67.5819 475.762 66.2059 475.976C65.9259 475.976 62.4679 477.776 62.4679 477.776C62.4679 477.776 66.698 486.806 63.509 493.364C63.509 493.364 64.7169 482.241 61.1479 478.425L56.0899 481.425C56.0899 481.425 61.0249 490.746 57.6789 498.356C57.6789 498.356 58.541 486.685 55.027 482.142L50.4499 485.723C50.4499 485.723 55.0829 494.91 52.2629 501.223C52.2629 501.223 51.883 487.638 49.454 486.609C49.454 486.609 45.448 490.145 44.832 491.6C44.832 491.6 48.0099 498.314 46.0409 501.794C46.0409 501.794 44.832 492.741 43.803 492.694C43.803 492.694 39.808 498.694 39.394 502.765C39.594 498.967 40.7822 495.288 42.8409 492.09C40.5356 492.527 38.4081 493.627 36.72 495.257C36.72 495.257 37.347 491.016 43.826 490.647C43.826 490.647 47.183 486.093 48.011 485.813C48.011 485.813 41.566 485.276 37.66 487.013C37.66 487.013 41.095 483.018 49.186 484.831L53.662 481.138C53.662 481.138 45.1719 480.008 41.5719 481.254C41.5719 481.254 45.7119 477.718 54.8769 480.292L59.8009 477.349C59.8009 477.349 52.561 475.794 48.253 476.349C48.253 476.349 52.8069 473.898 61.2449 476.549L64.7699 474.971C64.7699 474.971 59.47 473.93 57.91 473.762C56.35 473.594 56.2759 473.169 56.2759 473.169C59.6351 472.61 63.0836 472.998 66.235 474.288C66.235 474.288 73.8029 471.474 73.6719 471.008Z" fill="#3F3D56"/>
</g>
<path d="M570.192 161.839L556.265 165.439L384.69 209.785L370.763 213.385C364.004 215.14 358.215 219.511 354.666 225.539C351.118 231.567 350.1 238.759 351.837 245.538L412.224 480.24C413.976 487.016 418.337 492.818 424.351 496.374C430.365 499.93 437.541 500.95 444.305 499.21L444.341 499.201L643.697 447.674L643.733 447.665C650.493 445.91 656.282 441.538 659.83 435.511C663.378 429.483 664.396 422.29 662.66 415.511L602.272 180.809C600.521 174.034 596.16 168.232 590.146 164.676C584.131 161.119 576.955 160.099 570.192 161.839Z" fill="#F2F2F2"/>
<path d="M572.086 169.198L555.591 173.461L389.152 216.48L372.658 220.743C367.844 221.993 363.721 225.106 361.195 229.399C358.668 233.691 357.943 238.813 359.179 243.641L419.567 478.343C420.814 483.167 423.92 487.299 428.203 489.832C432.486 492.364 437.596 493.091 442.412 491.852L442.448 491.842L641.805 440.315L641.841 440.306C646.655 439.056 650.777 435.943 653.304 431.651C655.831 427.358 656.555 422.236 655.319 417.409L594.931 182.707C593.684 177.882 590.579 173.75 586.296 171.218C582.013 168.685 576.903 167.959 572.086 169.198V169.198Z" fill="white"/>
<path d="M559.631 245.201L458.782 271.267C457.655 271.558 456.46 271.389 455.458 270.796C454.456 270.204 453.73 269.237 453.439 268.108C453.149 266.979 453.318 265.781 453.909 264.776C454.5 263.772 455.465 263.045 456.591 262.753L557.441 236.687C558.567 236.397 559.762 236.567 560.763 237.16C561.764 237.752 562.489 238.719 562.779 239.847C563.07 240.976 562.901 242.173 562.311 243.177C561.72 244.181 560.757 244.909 559.631 245.201V245.201Z" fill="#F2F2F2"/>
<path d="M580.847 255.039L462.478 285.633C461.352 285.924 460.156 285.755 459.154 285.163C458.152 284.57 457.426 283.603 457.136 282.474C456.845 281.345 457.014 280.147 457.605 279.143C458.196 278.139 459.161 277.411 460.287 277.12L578.656 246.526C579.782 246.234 580.978 246.404 581.98 246.996C582.982 247.589 583.708 248.556 583.998 249.685C584.289 250.813 584.12 252.012 583.529 253.016C582.938 254.02 581.973 254.748 580.847 255.039V255.039Z" fill="#F2F2F2"/>
<path d="M576.196 309.583L475.347 335.649C474.789 335.793 474.208 335.826 473.638 335.745C473.068 335.665 472.519 335.472 472.023 335.179C471.527 334.885 471.093 334.497 470.747 334.036C470.401 333.574 470.148 333.049 470.005 332.49C469.861 331.931 469.828 331.349 469.909 330.778C469.989 330.206 470.181 329.656 470.474 329.159C470.767 328.662 471.154 328.227 471.614 327.88C472.075 327.533 472.599 327.28 473.156 327.136L574.006 301.07C574.564 300.926 575.144 300.893 575.715 300.974C576.285 301.054 576.834 301.247 577.33 301.54C577.826 301.834 578.259 302.222 578.606 302.683C578.952 303.145 579.204 303.67 579.348 304.229C579.492 304.788 579.525 305.37 579.444 305.941C579.364 306.513 579.171 307.063 578.879 307.56C578.586 308.057 578.199 308.492 577.738 308.839C577.278 309.186 576.754 309.439 576.196 309.583V309.583Z" fill="#F2F2F2"/>
<path d="M597.412 319.421L479.043 350.016C478.486 350.16 477.905 350.192 477.335 350.112C476.764 350.031 476.216 349.838 475.719 349.545C475.223 349.252 474.79 348.863 474.443 348.402C474.097 347.941 473.845 347.416 473.701 346.857C473.557 346.298 473.525 345.716 473.605 345.144C473.686 344.573 473.878 344.022 474.171 343.525C474.463 343.028 474.851 342.593 475.311 342.246C475.771 341.899 476.295 341.646 476.853 341.502L595.222 310.908C596.348 310.617 597.544 310.786 598.545 311.379C599.547 311.971 600.273 312.938 600.564 314.067C600.854 315.196 600.685 316.394 600.094 317.398C599.503 318.403 598.538 319.13 597.412 319.421Z" fill="#F2F2F2"/>
<path d="M592.762 373.966L491.912 400.032C490.786 400.322 489.591 400.152 488.59 399.56C487.589 398.967 486.863 398.001 486.573 396.872C486.283 395.744 486.451 394.546 487.042 393.542C487.632 392.538 488.596 391.81 489.722 391.518L590.571 365.452C591.698 365.161 592.893 365.33 593.895 365.923C594.897 366.515 595.623 367.482 595.914 368.611C596.204 369.74 596.035 370.939 595.444 371.943C594.853 372.947 593.888 373.675 592.762 373.966Z" fill="#F2F2F2"/>
<path d="M613.977 383.804L495.609 414.398C495.051 414.543 494.47 414.576 493.899 414.496C493.328 414.415 492.779 414.223 492.283 413.93C491.786 413.636 491.352 413.248 491.005 412.786C490.659 412.325 490.406 411.799 490.262 411.24C490.119 410.681 490.086 410.099 490.167 409.527C490.248 408.955 490.44 408.404 490.733 407.907C491.026 407.41 491.414 406.975 491.875 406.628C492.335 406.281 492.86 406.029 493.418 405.885L611.787 375.291C612.913 374.999 614.109 375.169 615.111 375.761C616.113 376.354 616.839 377.321 617.129 378.449C617.419 379.578 617.251 380.777 616.66 381.781C616.068 382.785 615.104 383.513 613.977 383.804V383.804Z" fill="#F2F2F2"/>
<path d="M441.565 297.994L405.875 307.218C405.335 307.357 404.762 307.276 404.282 306.992C403.802 306.708 403.454 306.245 403.314 305.704L395.121 273.863C394.983 273.321 395.064 272.747 395.347 272.266C395.63 271.784 396.093 271.435 396.632 271.295L432.322 262.071C432.862 261.932 433.435 262.013 433.915 262.297C434.396 262.581 434.744 263.044 434.884 263.585L443.076 295.426C443.215 295.968 443.134 296.542 442.85 297.023C442.567 297.505 442.105 297.854 441.565 297.994V297.994Z" fill="#E6E6E6"/>
<path d="M458.13 362.376L422.441 371.601C421.901 371.74 421.328 371.658 420.847 371.375C420.367 371.091 420.019 370.627 419.879 370.086L411.686 338.245C411.548 337.704 411.629 337.13 411.912 336.648C412.196 336.167 412.658 335.818 413.198 335.678L448.887 326.453C449.428 326.314 450.001 326.396 450.481 326.68C450.961 326.964 451.309 327.427 451.449 327.968L459.642 359.809C459.78 360.35 459.699 360.925 459.416 361.406C459.132 361.887 458.67 362.236 458.13 362.376V362.376Z" fill="#E6E6E6"/>
<path d="M474.696 426.759L439.006 435.983C438.466 436.122 437.893 436.041 437.413 435.757C436.932 435.473 436.584 435.01 436.444 434.469L428.252 402.628C428.113 402.086 428.194 401.512 428.478 401.031C428.761 400.549 429.223 400.2 429.763 400.06L465.453 390.836C465.993 390.697 466.566 390.778 467.046 391.062C467.526 391.346 467.875 391.809 468.014 392.35L476.207 424.191C476.346 424.733 476.264 425.307 475.981 425.788C475.698 426.27 475.235 426.619 474.696 426.759V426.759Z" fill="#E6E6E6"/>
<path d="M709.284 221.333H503.331C496.348 221.341 489.654 224.125 484.716 229.074C479.778 234.023 477.001 240.733 476.993 247.731V490.112C477.001 497.111 479.778 503.821 484.716 508.769C489.654 513.718 496.348 516.502 503.331 516.51H709.284C716.267 516.502 722.961 513.718 727.899 508.769C732.837 503.821 735.614 497.111 735.622 490.112V247.731C735.614 240.733 732.837 234.023 727.899 229.074C722.961 224.125 716.267 221.341 709.284 221.333V221.333Z" fill="#E6E6E6"/>
<path d="M709.284 228.933H503.331C498.358 228.938 493.591 230.921 490.075 234.445C486.559 237.969 484.581 242.747 484.575 247.731V490.112C484.581 495.096 486.559 499.874 490.075 503.398C493.591 506.923 498.358 508.905 503.331 508.91H709.284C714.257 508.905 719.024 506.922 722.54 503.398C726.056 499.874 728.034 495.096 728.04 490.112V247.731C728.034 242.747 726.056 237.969 722.54 234.445C719.024 230.921 714.257 228.938 709.284 228.933V228.933Z" fill="white"/>
<path d="M730.921 546C757.474 546 779 524.425 779 497.812C779 471.198 757.474 449.623 730.921 449.623C704.368 449.623 682.842 471.198 682.842 497.812C682.842 524.425 704.368 546 730.921 546Z" fill="#17A2B8"/>
<path d="M678.288 362.12H574.139C573.563 362.121 572.992 362.008 572.459 361.787C571.926 361.567 571.442 361.243 571.035 360.835C570.627 360.426 570.303 359.941 570.083 359.408C569.862 358.874 569.748 358.302 569.748 357.724C569.748 357.147 569.862 356.575 570.083 356.041C570.303 355.507 570.627 355.023 571.035 354.614C571.442 354.206 571.926 353.882 572.459 353.662C572.992 353.441 573.563 353.328 574.139 353.328H678.288C679.45 353.33 680.565 353.793 681.386 354.618C682.208 355.442 682.669 356.559 682.669 357.724C682.669 358.889 682.208 360.007 681.386 360.831C680.565 361.655 679.45 362.119 678.288 362.12V362.12Z" fill="#E6E6E6"/>
<path d="M696.38 376.957H574.139C573.563 376.957 572.992 376.844 572.459 376.624C571.926 376.403 571.442 376.079 571.035 375.671C570.627 375.263 570.303 374.778 570.083 374.244C569.862 373.71 569.748 373.138 569.748 372.561C569.748 371.983 569.862 371.411 570.083 370.877C570.303 370.344 570.627 369.859 571.035 369.451C571.442 369.042 571.926 368.719 572.459 368.498C572.992 368.277 573.563 368.164 574.139 368.165H696.38C697.543 368.165 698.659 368.628 699.482 369.452C700.304 370.277 700.766 371.395 700.766 372.561C700.766 373.727 700.304 374.845 699.482 375.669C698.659 376.494 697.543 376.957 696.38 376.957Z" fill="#E6E6E6"/>
<path d="M678.288 428.609H574.139C573.563 428.61 572.992 428.497 572.459 428.276C571.926 428.055 571.442 427.732 571.035 427.323C570.627 426.915 570.303 426.43 570.083 425.897C569.862 425.363 569.748 424.791 569.748 424.213C569.748 423.636 569.862 423.064 570.083 422.53C570.303 421.996 570.627 421.511 571.035 421.103C571.442 420.695 571.926 420.371 572.459 420.151C572.992 419.93 573.563 419.817 574.139 419.817H678.288C679.451 419.817 680.567 420.281 681.389 421.105C682.212 421.929 682.674 423.047 682.674 424.213C682.674 425.379 682.212 426.497 681.389 427.322C680.567 428.146 679.451 428.609 678.288 428.609V428.609Z" fill="#E6E6E6"/>
<path d="M696.38 443.446H574.139C573.563 443.446 572.992 443.333 572.459 443.112C571.926 442.892 571.442 442.568 571.035 442.16C570.627 441.752 570.303 441.267 570.083 440.733C569.862 440.199 569.748 439.627 569.748 439.05C569.748 438.472 569.862 437.9 570.083 437.366C570.303 436.833 570.627 436.348 571.035 435.939C571.442 435.531 571.926 435.207 572.459 434.987C572.992 434.766 573.563 434.653 574.139 434.654H696.38C696.957 434.653 697.527 434.766 698.06 434.987C698.593 435.207 699.077 435.531 699.485 435.939C699.893 436.348 700.216 436.833 700.437 437.366C700.658 437.9 700.771 438.472 700.771 439.05C700.771 439.627 700.658 440.199 700.437 440.733C700.216 441.267 699.893 441.752 699.485 442.16C699.077 442.568 698.593 442.892 698.06 443.112C697.527 443.333 696.957 443.446 696.38 443.446Z" fill="#E6E6E6"/>
<path d="M550.809 383.692H513.952C513.394 383.691 512.86 383.469 512.465 383.074C512.071 382.679 511.849 382.143 511.849 381.584V348.701C511.849 348.142 512.071 347.607 512.465 347.211C512.86 346.816 513.394 346.594 513.952 346.593H550.809C551.367 346.594 551.901 346.816 552.295 347.211C552.69 347.607 552.912 348.142 552.912 348.701V381.584C552.912 382.143 552.69 382.679 552.295 383.074C551.901 383.469 551.367 383.691 550.809 383.692V383.692Z" fill="#E6E6E6"/>
<path d="M550.809 450.181H513.952C513.394 450.18 512.86 449.958 512.465 449.563C512.071 449.167 511.849 448.632 511.849 448.073V415.19C511.849 414.631 512.071 414.095 512.465 413.7C512.86 413.305 513.394 413.083 513.952 413.082H550.809C551.367 413.083 551.901 413.305 552.295 413.7C552.69 414.095 552.912 414.631 552.912 415.19V448.073C552.912 448.632 552.69 449.167 552.295 449.563C551.901 449.958 551.367 450.18 550.809 450.181V450.181Z" fill="#E6E6E6"/>
<path d="M678.404 288.105H601.619C600.456 288.105 599.34 287.642 598.517 286.818C597.695 285.993 597.233 284.875 597.233 283.709C597.233 282.543 597.695 281.425 598.517 280.601C599.34 279.776 600.456 279.313 601.619 279.313H678.404C679.567 279.313 680.682 279.776 681.505 280.601C682.328 281.425 682.79 282.543 682.79 283.709C682.79 284.875 682.328 285.993 681.505 286.818C680.682 287.642 679.567 288.105 678.404 288.105Z" fill="#CCCCCC"/>
<path d="M696.496 302.942H601.619C601.043 302.942 600.473 302.828 599.94 302.607C599.408 302.386 598.925 302.062 598.517 301.654C598.11 301.246 597.787 300.761 597.567 300.228C597.346 299.694 597.233 299.123 597.233 298.546C597.233 297.968 597.346 297.397 597.567 296.863C597.787 296.33 598.11 295.845 598.517 295.437C598.925 295.029 599.408 294.705 599.94 294.484C600.473 294.263 601.043 294.15 601.619 294.15H696.496C697.659 294.15 698.775 294.613 699.597 295.437C700.42 296.262 700.882 297.38 700.882 298.546C700.882 299.711 700.42 300.83 699.597 301.654C698.775 302.478 697.659 302.942 696.496 302.942V302.942Z" fill="#CCCCCC"/>
<path d="M584.625 320.921H513.836C513.279 320.921 512.744 320.699 512.35 320.303C511.955 319.908 511.734 319.372 511.733 318.814V263.441C511.734 262.882 511.955 262.347 512.35 261.951C512.744 261.556 513.279 261.334 513.836 261.333H584.625C585.183 261.334 585.717 261.556 586.111 261.951C586.506 262.347 586.728 262.882 586.728 263.441V318.814C586.728 319.372 586.506 319.908 586.111 320.303C585.717 320.699 585.183 320.921 584.625 320.921V320.921Z" fill="#17A2B8"/>
<path d="M743.466 571.278C781.89 571.278 813.039 540.129 813.039 501.705C813.039 463.281 781.89 432.132 743.466 432.132C705.042 432.132 673.893 463.281 673.893 501.705C673.893 540.129 705.042 571.278 743.466 571.278Z" fill="white"/>
<path d="M834.974 491.99C834.973 510.381 829.519 528.359 819.301 543.65C809.083 558.942 794.56 570.86 777.569 577.897C760.577 584.934 741.881 586.775 723.843 583.187C705.806 579.598 689.237 570.742 676.233 557.737C663.229 544.732 654.374 528.163 650.786 510.125C647.199 492.087 649.041 473.391 656.079 456.4C663.118 439.409 675.037 424.887 690.329 414.669C705.621 404.452 723.599 398.999 741.99 399C754.201 399 766.293 401.406 777.574 406.079C788.856 410.753 799.107 417.602 807.741 426.237C816.375 434.872 823.224 445.123 827.897 456.405C832.57 467.687 834.974 479.779 834.974 491.99V491.99ZM731.241 541.21L800.218 472.233C800.776 471.676 801.219 471.015 801.521 470.287C801.824 469.559 801.979 468.778 801.979 467.99C801.979 467.201 801.824 466.42 801.521 465.692C801.219 464.964 800.776 464.303 800.218 463.746L791.731 455.321C791.175 454.763 790.515 454.32 789.788 454.018C789.061 453.716 788.281 453.561 787.494 453.561C786.706 453.561 785.926 453.716 785.199 454.018C784.472 454.32 783.812 454.763 783.256 455.321L726.998 511.58L700.73 485.25C699.602 484.129 698.077 483.499 696.486 483.499C694.896 483.499 693.371 484.129 692.243 485.25L683.756 493.787C682.635 494.915 682.005 496.44 682.005 498.031C682.005 499.621 682.635 501.146 683.756 502.274L722.756 541.26C723.313 541.818 723.974 542.261 724.702 542.563C725.43 542.866 726.211 543.021 726.999 543.021C727.788 543.021 728.569 542.866 729.297 542.563C730.025 542.261 730.686 541.818 731.243 541.26L731.241 541.21Z" fill="#17A2B8"/>
<defs>
<linearGradient id="paint0_linear" x1="209.355" y1="384.2" x2="209.355" y2="383.91" gradientUnits="userSpaceOnUse">
<stop stop-color="#808080" stop-opacity="0.251"/>
<stop offset="0.54" stop-color="#808080" stop-opacity="0.122"/>
<stop offset="1" stop-color="#808080" stop-opacity="0.102"/>
</linearGradient>
<clipPath id="clip0">
<rect width="902.567" height="748.955" fill="white"/>
</clipPath>
</defs>
</svg>
