<svg width="1032" height="742" viewBox="0 0 1032 742" fill="none" xmlns="http://www.w3.org/2000/svg">
<path d="M729.43 68.1428H55.1233C44.777 68.1428 36.3893 76.9183 36.3893 87.7442V552.798C36.3893 563.623 44.777 572.4 55.1233 572.4H729.43C739.776 572.4 748.164 563.623 748.164 552.798V87.7442C748.164 76.9183 739.776 68.1428 729.43 68.1428Z" fill="#E8E7E7"/>
<path d="M989.709 261.617C976.822 304.537 939.19 334.582 899.936 360.104C894.455 363.669 888.972 367.151 883.488 370.552C883.45 370.567 883.412 370.601 883.374 370.617C883.111 370.779 882.846 370.942 882.6 371.106C881.469 371.806 880.336 372.507 879.213 373.2L879.831 373.465C879.831 373.465 880.436 373.774 879.773 373.515C879.577 373.436 879.37 373.364 879.173 373.285C856.368 364.455 833.159 354.976 815.683 338.436C797.554 321.261 786.96 294.322 796.777 271.759C798.066 268.802 799.696 265.995 801.635 263.386C802.431 262.292 803.289 261.245 804.183 260.218C809.597 253.874 816.674 249.028 824.687 246.18C832.699 243.332 841.357 242.584 849.771 244.013C858.183 245.442 866.049 248.996 872.556 254.31C879.064 259.625 883.98 266.507 886.799 274.25C889.683 248.473 867.542 226.881 846.234 210.949C824.916 195.025 800.695 177.685 796.574 152.052C794.273 137.79 799.439 123.968 808.85 112.873C809.141 112.536 809.432 112.199 809.733 111.872C821.189 98.9488 837.301 90.6506 854.853 88.6344C887.539 85.3733 919.29 101.982 943.036 123.799C981.256 158.901 1004.36 212.817 989.709 261.617Z" fill="#17A2B8"/>
<path d="M928.27 205.478C934.544 214.847 939.36 225.044 942.567 235.749C945.28 245.315 946.488 255.218 946.148 265.127C945.562 285.496 939.033 305.4 928.761 323.128C920.813 336.571 911.129 348.994 899.936 360.104C894.455 363.669 888.972 367.151 883.488 370.552C883.45 370.567 883.412 370.601 883.374 370.617C883.111 370.779 882.846 370.942 882.6 371.106C881.469 371.806 880.336 372.507 879.213 373.2C879.213 373.2 880.436 373.774 879.773 373.515C879.577 373.436 879.37 373.364 879.173 373.285C881.216 357.2 879.214 340.877 873.334 325.687C867.453 310.497 857.866 296.88 845.374 285.98C832.853 275.246 817.866 267.503 801.635 263.386C802.431 262.292 803.289 261.245 804.183 260.218C810.451 261.906 816.551 264.121 822.413 266.841C843.368 276.5 860.525 292.38 871.346 312.129C881.058 330.062 885.236 350.282 883.394 370.416C884.331 369.601 885.269 368.768 886.178 367.943C903.508 352.433 918.899 334.633 929.315 314.087C938.352 296.688 942.794 277.424 942.25 257.989C941.399 236.798 932.603 217.17 919.868 200.083C906.227 181.795 889.126 165.615 870.863 151.598C852.157 137.216 831.688 125.085 809.913 115.476C809.422 115.256 809.037 114.863 808.84 114.378C808.641 113.894 808.645 113.355 808.85 112.873C808.995 112.441 809.313 112.081 809.733 111.872C809.948 111.782 810.183 111.741 810.418 111.75C810.653 111.76 810.883 111.82 811.091 111.927C813.779 113.115 816.45 114.32 819.097 115.576C841.157 126.043 861.775 139.1 880.481 154.446C898.549 169.234 915.56 186.128 928.27 205.478Z" fill="white"/>
<path d="M779.378 507.372C805.779 507.372 827.181 486.828 827.181 461.484C827.181 436.141 805.779 415.595 779.378 415.595C752.978 415.595 731.577 436.141 731.577 461.484C731.577 486.828 752.978 507.372 779.378 507.372Z" fill="#2F2E41"/>
<path d="M742.067 436.743C749.791 429.327 751.358 418.807 745.564 413.246C739.77 407.684 728.812 409.186 721.087 416.602C713.362 424.017 711.797 434.537 717.591 440.099C723.384 445.661 734.342 444.157 742.067 436.743Z" fill="#2F2E41"/>
<path d="M829.202 422.17C832.42 414.937 826.885 405.734 816.839 401.614C806.792 397.495 796.04 400.019 792.821 407.252C789.603 414.485 795.137 423.688 805.184 427.807C815.229 431.927 825.983 429.403 829.202 422.17Z" fill="#2F2E41"/>
<path d="M880.613 658.512C872.399 663.99 863.719 668.795 854.666 672.874L853.328 670.603L840.516 649.016L839.394 647.122L832.84 636.081L832.826 636.068L812.136 601.17L801.5 583.254L833.083 561.991L845.368 586.926L852.03 600.47L879.451 656.138L880.613 658.512Z" fill="#A0616A"/>
<path d="M852.395 574.316L848.435 568.361L830.921 541.986C828.529 536.862 824.119 532.857 818.658 530.847C813.195 528.838 807.127 528.988 801.781 531.266C796.435 533.544 792.247 537.763 790.134 542.999C788.022 548.235 788.159 554.062 790.513 559.202L801.338 596.228C801.643 597.276 802.179 598.248 802.908 599.08C803.638 599.913 804.544 600.587 805.567 601.055C806.59 601.523 807.706 601.775 808.838 601.796C809.971 601.815 811.095 601.602 812.136 601.17C812.176 601.157 812.203 601.145 812.244 601.132L845.368 586.926L848.936 585.395C849.977 584.945 850.906 584.284 851.659 583.459C852.411 582.634 852.971 581.664 853.299 580.613C853.626 579.562 853.716 578.457 853.56 577.37C853.405 576.284 853.007 575.242 852.395 574.316Z" fill="#6C63FF"/>
<path d="M757.227 575.146L748.01 595.125L746.01 599.471L711.886 673.471L710.792 675.845C701.552 672.146 692.654 667.701 684.195 662.56L685.114 660.069L712.967 584.629L719.806 566.103L734.78 569.723L757.227 575.146Z" fill="#A0616A"/>
<path d="M816.493 491.119C827.239 472.246 820.015 448.584 800.354 438.266C780.695 427.95 756.044 434.885 745.298 453.759C734.55 472.631 741.776 496.294 761.435 506.611C781.096 516.928 805.746 509.991 816.493 491.119Z" fill="#A0616A"/>
<path d="M851.611 583.514C851.025 578.382 849.963 573.312 848.436 568.361C843.835 553.457 835.039 540.061 823.015 529.649C818.597 525.842 812.868 523.739 806.933 523.746H749.781C745.672 523.735 741.631 524.736 738.041 526.652C734.451 528.568 731.432 531.335 729.274 534.689C727.114 538.044 725.887 541.873 725.707 545.812C725.529 549.752 726.405 553.669 728.252 557.191L734.78 569.723L748.01 595.125L751.186 601.209L765.336 628.388L766.457 630.542L838.286 649.509L838.597 648.847C838.867 648.263 839.138 647.693 839.394 647.122C839.786 646.253 840.178 645.409 840.543 644.553C847.787 628.064 851.206 613.391 852.03 600.47C852.401 594.817 852.26 589.144 851.611 583.514Z" fill="#17A2B8"/>
<path d="M760.146 530.855C754.859 528.477 748.807 528.207 743.313 530.104C737.819 532.001 733.332 535.909 730.833 540.974L725.738 548.356L708.71 573.031C708.079 573.947 707.66 574.982 707.482 576.067C707.305 577.153 707.372 578.262 707.682 579.319C707.991 580.377 708.533 581.358 709.274 582.196C710.013 583.034 710.932 583.708 711.967 584.175L712.967 584.629L746.01 599.471L748.361 600.522C749.248 600.923 750.208 601.156 751.186 601.209C752.491 601.308 753.802 601.09 754.997 600.574C756.039 600.126 756.969 599.467 757.723 598.643C758.476 597.819 759.035 596.849 759.362 595.799L770.795 559.072C773.277 553.974 773.548 548.139 771.551 542.849C769.555 537.558 765.453 533.245 760.146 530.855Z" fill="#17A2B8"/>
<path d="M840.543 644.553C840.301 643.745 839.913 642.986 839.394 642.309C837.546 639.931 835.337 637.832 832.84 636.082L832.826 636.069C824.137 629.751 806.838 622.369 773.471 622.174H773.417C771.887 622.173 770.39 622.595 769.103 623.389C767.817 624.181 766.795 625.314 766.16 626.65L765.336 628.388L760.024 639.597C759.574 640.563 758.859 641.392 757.957 641.997C753.159 645.254 737.888 657.059 729.995 679.607C729.712 680.411 729.441 681.229 729.185 682.072C762.929 691.535 798.834 691.223 832.394 681.177L833.137 678.232L840.516 649.016L840.638 648.536C840.973 647.223 840.939 645.849 840.543 644.553Z" fill="#2F2E41"/>
<path d="M738.266 447.943C747.537 454.077 758.541 457.341 769.799 457.298C765.783 459.97 761.211 461.776 756.398 462.591C771.368 465.673 786.84 465.756 801.845 462.836C805.18 462.322 808.398 461.261 811.359 459.699C812.833 458.908 814.118 457.828 815.131 456.528C816.143 455.23 816.858 453.742 817.231 452.159C818.228 446.691 813.79 441.723 809.176 438.375C802.115 433.327 793.971 429.849 785.338 428.193C776.704 426.537 767.794 426.743 759.253 428.798C753.677 430.182 748.09 432.52 744.467 436.819C740.845 441.119 739.772 447.747 743.223 452.175L738.266 447.943Z" fill="#2F2E41"/>
<path d="M794.232 94.0562H61.3256V96.876H794.232V94.0562Z" fill="#545B62"/>
<path d="M86.2943 84.1302C91.1613 84.1302 95.1068 80.3426 95.1068 75.6706C95.1068 70.9983 91.1613 67.2108 86.2943 67.2108C81.4273 67.2108 77.4819 70.9983 77.4819 75.6706C77.4819 80.3426 81.4273 84.1302 86.2943 84.1302Z" fill="#545B62"/>
<path d="M111.63 84.1302C116.497 84.1302 120.443 80.3426 120.443 75.6706C120.443 70.9983 116.497 67.2108 111.63 67.2108C106.763 67.2108 102.818 70.9983 102.818 75.6706C102.818 80.3426 106.763 84.1302 111.63 84.1302Z" fill="#545B62"/>
<path d="M136.966 84.1302C141.833 84.1302 145.779 80.3426 145.779 75.6706C145.779 70.9983 141.833 67.2108 136.966 67.2108C132.099 67.2108 128.154 70.9983 128.154 75.6706C128.154 80.3426 132.099 84.1302 136.966 84.1302Z" fill="#545B62"/>
<path d="M635.504 257.705H219.533C218.295 257.705 217.069 257.471 215.926 257.016C214.783 256.561 213.743 255.895 212.868 255.054C211.992 254.214 211.297 253.216 210.824 252.118C210.35 251.021 210.107 249.843 210.107 248.655C210.107 247.466 210.35 246.29 210.824 245.192C211.297 244.095 211.992 243.097 212.868 242.256C213.743 241.416 214.783 240.749 215.926 240.295C217.069 239.839 218.295 239.606 219.533 239.606H635.504C636.742 239.606 637.968 239.839 639.112 240.295C640.256 240.749 641.295 241.416 642.171 242.256C643.045 243.097 643.74 244.095 644.214 245.192C644.687 246.29 644.932 247.466 644.932 248.655C644.932 249.843 644.687 251.021 644.214 252.118C643.74 253.216 643.045 254.214 642.171 255.054C641.295 255.895 640.256 256.561 639.112 257.016C637.968 257.471 636.742 257.705 635.504 257.705Z" fill="#17A2B8" fill-opacity="0.5"/>
<path d="M635.504 354.989H219.533C218.295 354.989 217.069 354.754 215.926 354.3C214.783 353.845 213.743 353.178 212.868 352.339C211.992 351.498 211.297 350.5 210.824 349.403C210.35 348.304 210.107 347.127 210.107 345.939C210.107 344.75 210.35 343.574 210.824 342.476C211.297 341.377 211.992 340.38 212.868 339.54C213.743 338.7 214.783 338.033 215.926 337.579C217.069 337.123 218.295 336.89 219.533 336.89H635.504C636.742 336.89 637.968 337.123 639.112 337.579C640.256 338.033 641.295 338.7 642.171 339.54C643.045 340.38 643.74 341.377 644.214 342.476C644.687 343.574 644.932 344.75 644.932 345.939C644.932 347.127 644.687 348.304 644.214 349.403C643.74 350.5 643.045 351.498 642.171 352.339C641.295 353.178 640.256 353.845 639.112 354.3C637.968 354.754 636.742 354.989 635.504 354.989Z" fill="#17A2B8" fill-opacity="0.5"/>
<path d="M635.504 392.318H219.533C217.033 392.318 214.635 391.365 212.868 389.668C211.1 387.971 210.107 385.669 210.107 383.269C210.107 380.869 211.1 378.567 212.868 376.87C214.635 375.173 217.033 374.219 219.533 374.219H635.504C638.004 374.219 640.403 375.173 642.171 376.87C643.938 378.567 644.932 380.869 644.932 383.269C644.932 385.669 643.938 387.971 642.171 389.668C640.403 391.365 638.004 392.318 635.504 392.318Z" fill="#17A2B8" fill-opacity="0.5"/>
<path d="M567.747 219.244H287.291C284.79 219.244 282.392 218.291 280.625 216.594C278.857 214.895 277.864 212.594 277.864 210.194C277.864 207.794 278.857 205.492 280.625 203.795C282.392 202.097 284.79 201.144 287.291 201.144H567.747C570.247 201.144 572.645 202.097 574.412 203.795C576.181 205.492 577.175 207.794 577.175 210.194C577.175 212.594 576.181 214.895 574.412 216.594C572.645 218.291 570.247 219.244 567.747 219.244Z" fill="#17A2B8" fill-opacity="0.5"/>
<path d="M366.183 317.658H220.063C218.824 317.661 217.596 317.427 216.452 316.973C215.306 316.519 214.265 315.852 213.389 315.012C212.512 314.171 211.818 313.173 211.342 312.075C210.868 310.976 210.624 309.799 210.624 308.609C210.624 307.42 210.868 306.242 211.342 305.143C211.818 304.045 212.512 303.046 213.389 302.206C214.265 301.365 215.306 300.7 216.452 300.246C217.596 299.791 218.824 299.558 220.063 299.559H366.183C368.683 299.559 371.081 300.513 372.848 302.21C374.616 303.907 375.609 306.209 375.609 308.609C375.609 311.01 374.616 313.311 372.848 315.008C371.081 316.706 368.683 317.658 366.183 317.658Z" fill="#17A2B8" fill-opacity="0.5"/>
<path d="M636.033 317.658H489.912C488.675 317.661 487.447 317.427 486.301 316.973C485.157 316.519 484.116 315.852 483.24 315.012C482.363 314.171 481.667 313.173 481.193 312.075C480.719 310.976 480.475 309.799 480.475 308.609C480.475 307.42 480.719 306.242 481.193 305.143C481.667 304.045 482.363 303.046 483.24 302.206C484.116 301.365 485.157 300.7 486.301 300.246C487.447 299.791 488.675 299.558 489.912 299.559H636.033C637.272 299.558 638.499 299.791 639.645 300.246C640.79 300.7 641.83 301.365 642.706 302.206C643.583 303.046 644.279 304.045 644.753 305.143C645.228 306.242 645.472 307.42 645.472 308.609C645.472 309.799 645.228 310.976 644.753 312.075C644.279 313.173 643.583 314.171 642.706 315.012C641.83 315.852 640.79 316.519 639.645 316.973C638.499 317.427 637.272 317.661 636.033 317.658Z" fill="#17A2B8" fill-opacity="0.5"/>
<path d="M785.418 54.5143H70.129C67.4039 54.5183 64.7918 55.5601 62.8661 57.4111C60.9404 59.2621 59.8585 61.771 59.8579 64.387V529.675C59.8613 532.289 60.9446 534.794 62.87 536.642C64.7955 538.491 67.406 539.53 70.129 539.534H605.014C604.879 538.6 604.771 537.653 604.663 536.719H70.129C68.1832 536.718 66.3177 535.974 64.9418 534.654C63.566 533.333 62.7922 531.543 62.7904 529.675V64.387C62.7917 62.5178 63.5648 60.7253 64.9404 59.4024C66.316 58.0795 68.1818 57.3341 70.129 57.3295H785.418C787.367 57.3314 789.236 58.0756 790.614 59.3987C791.993 60.7218 792.767 62.5158 792.77 64.387V349.553C793.743 349.618 794.729 349.696 795.702 349.787V64.387C795.701 61.7689 794.617 59.2584 792.689 57.4072C790.76 55.556 788.145 54.5155 785.418 54.5143Z" fill="#545B62"/>
<path d="M605.014 539.534C604.879 538.6 604.771 537.653 604.663 536.719C604.636 536.576 604.622 536.447 604.609 536.304C604.217 532.892 603.933 529.445 603.758 525.964C603.014 528.961 602.344 531.971 601.744 534.994C601.784 535.435 601.825 535.863 601.879 536.304C601.893 536.447 601.906 536.576 601.933 536.719C602.041 537.653 602.149 538.6 602.284 539.534C602.663 542.427 603.122 545.281 603.663 548.123C603.677 548.006 603.69 547.902 603.704 547.785C604.082 545.048 604.514 542.323 605.028 539.599C605.017 539.58 605.013 539.556 605.014 539.534ZM795.702 347.179C794.729 347.088 793.743 347.01 792.77 346.946C792.621 346.933 792.486 346.933 792.337 346.92C788.013 346.608 783.634 346.453 779.228 346.453C754.285 346.46 729.62 351.488 706.825 361.211C684.03 370.933 663.611 385.136 646.887 402.902C630.163 420.668 617.506 441.603 609.73 464.354C601.955 487.107 599.234 511.169 601.744 534.994C601.784 535.435 601.825 535.863 601.879 536.304C601.893 536.447 601.906 536.576 601.933 536.719C602.041 537.653 602.149 538.6 602.284 539.534C602.663 542.427 603.122 545.281 603.663 548.123C609.032 576.29 621.642 602.725 640.35 625.028C659.058 647.332 683.271 664.799 710.791 675.845C713.602 676.96 716.44 678.024 719.319 678.997C721.211 679.659 723.103 680.269 725.022 680.852C726.401 681.281 727.793 681.683 729.185 682.072C731.158 682.63 733.158 683.162 735.171 683.655C759.873 689.738 785.649 690.641 810.747 686.302C835.844 681.964 859.674 672.486 880.613 658.512H880.627C904.371 642.774 923.784 621.738 937.194 597.211C950.604 572.685 957.613 545.399 957.618 517.7C957.618 428.6 886.37 355.184 795.702 347.179ZM879.451 656.138C871.194 661.673 862.453 666.513 853.328 670.604C846.77 673.55 840.027 676.098 833.137 678.232C802.047 687.836 768.786 688.945 737.077 681.436C734.698 680.878 732.339 680.269 729.995 679.607C727.684 678.958 725.396 678.271 723.13 677.544C721.279 676.934 719.427 676.312 717.589 675.65C715.67 674.95 713.778 674.223 711.886 673.471C683.428 662.085 658.581 643.729 639.829 620.237C621.076 596.745 609.077 568.94 605.028 539.599C605.017 539.58 605.013 539.556 605.014 539.534C604.879 538.6 604.771 537.653 604.663 536.719C604.636 536.576 604.622 536.447 604.609 536.304C604.217 532.892 603.933 529.445 603.758 525.964C603.609 523.227 603.537 520.473 603.541 517.7C603.593 472.985 622.118 430.116 655.055 398.499C687.991 366.88 732.648 349.097 779.228 349.047C783.634 349.047 788.013 349.203 792.337 349.514C792.486 349.527 792.621 349.54 792.77 349.553C793.743 349.618 794.729 349.696 795.702 349.787C884.884 357.778 954.915 430.027 954.915 517.7C954.911 544.909 948.046 571.713 934.904 595.821C921.763 619.928 902.736 640.625 879.451 656.138ZM717.589 675.65C715.67 674.95 713.778 674.223 711.886 673.471C683.428 662.085 658.581 643.729 639.829 620.237C621.076 596.745 609.077 568.94 605.028 539.599C604.514 542.323 604.082 545.048 603.704 547.785C603.69 547.902 603.677 548.006 603.663 548.123C609.032 576.29 621.644 602.725 640.35 625.028C659.058 647.332 683.271 664.799 710.791 675.845C713.602 676.96 716.44 678.024 719.319 678.997C718.724 677.894 718.143 676.779 717.589 675.65ZM792.337 346.92C788.013 346.608 783.634 346.453 779.228 346.453C754.285 346.46 729.62 351.488 706.825 361.211C684.03 370.933 663.611 385.136 646.887 402.902C630.163 420.668 617.506 441.603 609.73 464.354C601.955 487.107 599.234 511.169 601.744 534.994C601.784 535.435 601.825 535.863 601.879 536.304C601.893 536.447 601.906 536.576 601.933 536.719H604.663C604.636 536.576 604.622 536.447 604.609 536.304C604.217 532.892 603.933 529.445 603.758 525.964C603.609 523.227 603.537 520.473 603.541 517.7C603.591 472.985 622.118 430.116 655.055 398.499C687.991 366.88 732.648 349.097 779.228 349.047C783.634 349.047 788.013 349.203 792.337 349.514C792.486 349.527 792.621 349.54 792.77 349.553V346.946C792.621 346.933 792.486 346.933 792.337 346.92Z" fill="#545B62"/>
<path d="M924.231 390.285C979.023 391.183 979.014 469.424 924.228 470.314C869.438 469.416 869.446 391.175 924.231 390.285Z" fill="#17A2B8"/>
<path d="M924.231 452.088C923.454 452.086 922.709 451.791 922.16 451.263C921.61 450.736 921.302 450.021 921.301 449.275V434.365C921.301 434.033 921.163 433.715 920.918 433.479C920.674 433.244 920.341 433.112 919.995 433.112H904.463C903.686 433.112 902.942 432.816 902.392 432.288C901.843 431.76 901.534 431.045 901.534 430.299C901.534 429.553 901.843 428.838 902.392 428.31C902.942 427.784 903.686 427.486 904.463 427.486H919.995C920.341 427.486 920.674 427.354 920.918 427.119C921.163 426.884 921.301 426.567 921.301 426.234V411.323C921.301 410.577 921.609 409.862 922.159 409.334C922.708 408.807 923.454 408.51 924.231 408.51C925.007 408.51 925.753 408.807 926.301 409.334C926.851 409.862 927.159 410.577 927.159 411.323V426.233C927.159 426.567 927.297 426.884 927.542 427.119C927.786 427.354 928.119 427.486 928.465 427.486H943.997C944.774 427.486 945.519 427.784 946.069 428.31C946.617 428.838 946.927 429.553 946.927 430.299C946.927 431.045 946.617 431.76 946.069 432.288C945.519 432.816 944.774 433.112 943.997 433.112H928.465C928.119 433.112 927.786 433.244 927.542 433.479C927.297 433.715 927.159 434.033 927.159 434.365V449.275C927.158 450.021 926.85 450.736 926.301 451.263C925.751 451.789 925.007 452.086 924.231 452.088Z" fill="white"/>
</svg>
